# Blender v2.90.1 OBJ File: 'test2.blend'
# www.blender.org
mtllib ALICE_Body.mtl
o miku_01
v 0.273071 0.156006 0.106948
v -0.000001 0.226826 0.278387
v 0.000000 0.052707 0.120581
v 0.000000 0.153446 -0.428346
v 0.380907 0.518356 0.064178
v -0.000001 0.569512 0.259281
v -0.000001 0.276946 0.237000
v -0.273071 0.156005 0.106947
v -0.380909 0.518355 0.064177
v 0.185100 0.066876 -0.039854
v 0.253609 -0.226162 -0.467960
v 0.394668 0.518354 0.068035
v -0.185100 0.066875 -0.039854
v -0.394670 0.518353 0.068034
v -0.253607 -0.226163 -0.467961
v -0.219224 0.691476 -0.400620
v -0.326527 0.728994 -0.117924
v -0.000001 0.822752 -0.162504
v 0.219224 0.691477 -0.400619
v 0.286962 0.728995 -0.103723
v -0.159475 0.518208 0.277484
v -0.000001 0.739631 0.245238
v 0.159473 0.518209 0.277485
v 0.000000 -0.342989 0.201705
v 0.211759 -0.241920 -0.000167
v 0.176443 0.000000 0.000000
v 0.000000 0.080676 0.000056
v 0.000000 0.000108 -0.156597
v 0.000001 -0.241836 -0.122328
v 0.013992 -0.229732 0.084990
v 0.000000 -0.475382 0.264056
v 0.327241 -0.475199 -0.000327
v 0.190583 -0.241920 -0.000167
v 0.000001 -0.475017 -0.264712
v 0.000000 -0.241848 -0.105082
v -0.176443 0.000000 0.000000
v -0.211759 -0.241920 -0.000167
v -0.327239 -0.475200 -0.000329
v -0.190583 -0.241920 -0.000167
v 0.296935 0.073712 0.088914
v -0.296935 0.073711 0.088913
v 0.183599 0.276956 0.247603
v 0.340421 -0.397439 -0.000274
v 0.000001 -0.397260 -0.261314
v -0.340419 -0.397440 0.004235
v 0.124698 -0.397570 0.188710
v -0.124698 -0.397571 0.188709
v 0.099993 0.774981 -0.094298
v -0.089390 0.781314 -0.097091
v -0.228401 0.753524 -0.117924
v -0.070799 0.789894 -0.097091
v -0.241903 0.769637 -0.123410
v -0.058759 0.806008 -0.102576
v -0.268017 0.862046 -0.125292
v -0.073382 0.904987 -0.100695
v -0.272228 0.903486 -0.125292
v -0.097383 0.975462 -0.100695
v -0.267152 0.938127 -0.123097
v -0.115942 0.998490 -0.102889
v -0.268114 0.958176 -0.120317
v -0.139733 1.019685 -0.105669
v -0.253785 1.019150 -0.120317
v -0.205418 1.067118 -0.105669
v -0.260427 1.074545 -0.120317
v -0.245393 1.108561 -0.105669
v 0.236186 0.748455 -0.103723
v 0.118144 0.770568 -0.094298
v 0.239697 0.759727 -0.103306
v 0.123810 0.781841 -0.094298
v 0.257998 0.772155 -0.108163
v 0.125245 0.794269 -0.094298
v 0.271648 0.783141 -0.108203
v 0.122934 0.802358 -0.091140
v 0.281354 0.801726 -0.111990
v 0.121976 0.823623 -0.093562
v 0.297684 0.866318 -0.120554
v 0.142861 0.902471 -0.102126
v 0.283392 0.910872 -0.126287
v 0.176466 0.947025 -0.107858
v 0.282051 0.969279 -0.136659
v 0.227002 1.005432 -0.118230
v 0.303133 1.017730 -0.138347
v 0.273062 1.030865 -0.131651
v 0.308583 1.029957 -0.142888
v 0.297716 1.043092 -0.136192
v -0.057302 -0.000073 0.105888
v 0.000000 -0.074086 0.155233
v 0.057302 -0.000073 0.105888
v 0.000000 0.035010 0.088670
vt 0.358000 0.020000
vt 0.196080 0.147240
vt 0.018000 0.147240
vt 0.018000 0.020000
vt 0.358000 0.020000
vt 0.196080 0.147240
vt 0.018000 0.020000
vt 0.212870 0.710990
vt 0.021600 0.758540
vt 0.021600 0.641750
vt 0.333230 0.855050
vt 0.329200 0.819200
vt 0.490800 0.854030
vt 0.288400 0.953870
vt 0.021600 0.988250
vt 0.021600 0.792120
vt 0.345900 0.980800
vt 0.212870 0.710990
vt 0.333230 0.855050
vt 0.288400 0.953870
vt 0.345900 0.980800
vt 0.371020 0.440900
vt 0.546540 0.475070
vt 0.328110 0.636310
vt 0.371020 0.440900
vt 0.328110 0.636310
vt 0.546540 0.475070
vt 0.515070 0.711090
vt 0.352130 0.727450
vt 0.368790 0.781200
vt 0.515070 0.711090
vt 0.352130 0.727450
vt 0.240270 0.636310
vt 0.257500 0.732120
vt 0.240270 0.636310
vt 0.325682 0.747814
vt 0.166380 0.354000
vt 0.066188 0.354000
vt 0.018000 0.290786
vt 0.166380 0.354000
vt 0.066188 0.354000
vt 0.536380 0.354000
vt 0.388000 0.354000
vt 0.388000 0.420000
vt 0.566080 0.147240
vt 0.388000 0.147240
vt 0.541900 0.969499
vt 0.541900 0.815499
vt 0.761900 0.815499
vt 0.661720 0.969499
vt 0.541900 0.815499
vt 0.541900 0.969499
vt 0.661720 0.969499
vt 0.974800 0.381850
vt 0.891310 0.305950
vt 0.891310 0.457750
vt 0.018000 0.382691
vt 0.018000 0.420000
vt 0.536380 0.354000
vt 0.566080 0.147240
vt 0.761900 0.815499
vt 0.661720 0.969499
vt 0.661720 0.969499
vt 0.974800 0.381850
vt 0.311050 0.443900
vt 0.311050 0.443900
vt 0.256430 0.531900
vt 0.728000 0.020000
vt 0.388000 0.020000
vt 0.728000 0.020000
vt 0.325682 0.747814
vt 0.325682 0.747814
vt 0.352130 0.727450
vt 0.858097 0.815504
vt 0.831649 0.835867
vt 0.831649 0.835867
vt 0.858097 0.815504
vt 0.831649 0.835867
vt 0.858097 0.815504
vt 0.831649 0.835867
vt 0.858097 0.815504
vt 0.831649 0.835867
vt 0.858097 0.815504
vt 0.831649 0.835867
vt 0.858097 0.815504
vt 0.831649 0.835867
vt 0.858097 0.815504
vt 0.831649 0.835867
vt 0.858097 0.815504
vt 0.352130 0.727450
vt 0.325682 0.747814
vt 0.831649 0.835867
vt 0.858097 0.815504
vt 0.858097 0.815504
vt 0.831649 0.835867
vt 0.858097 0.815504
vt 0.831649 0.835867
vt 0.858097 0.815504
vt 0.831649 0.835867
vt 0.858097 0.815504
vt 0.831649 0.835867
vt 0.858097 0.815504
vt 0.831649 0.835867
vt 0.858097 0.815504
vt 0.831649 0.835867
vt 0.858097 0.815504
vt 0.831649 0.835867
vt 0.858097 0.815504
vt 0.831649 0.835867
vt 0.858097 0.815504
vt 0.831649 0.835867
vn 0.3101 0.7748 0.5509
vn 0.5966 0.0930 0.7971
vn 0.7486 0.3110 0.5856
vn 0.6255 0.5149 0.5862
vn 0.2107 0.3742 -0.9031
vn -0.3966 -0.7982 -0.4533
vn 0.1456 -0.1602 -0.9763
vn -0.6299 0.4114 -0.6588
vn 0.4168 -0.5387 0.7322
vn 0.3955 -0.7932 -0.4630
vn 0.4160 -0.4206 -0.8062
vn 0.6417 -0.0000 0.7670
vn 0.7505 -0.4181 0.5119
vn -0.0000 -0.0813 0.9967
vn 0.0000 -0.9453 0.3263
vn 0.0000 -0.8981 -0.4398
vn 0.7710 -0.1751 0.6122
vn -0.0000 -0.0759 0.9971
vn -0.0000 0.1799 0.9837
vn -0.7505 -0.4181 0.5119
vn -0.7710 -0.1751 0.6122
vn 0.2184 -0.5773 0.7867
vn 0.5789 -0.5894 -0.5634
vn 0.8758 0.1095 0.4701
vn -0.3883 -0.5860 0.7113
vn -0.7801 0.0474 0.6238
vn -0.6269 -0.7583 -0.1785
vn -0.4886 0.4901 -0.7218
vn -0.7297 0.6726 0.1235
vn 0.0055 0.9924 -0.1227
vn 0.5961 0.5604 -0.5749
vn 0.7804 0.6152 0.1124
vn -0.4271 0.2419 0.8713
vn 0.0201 0.7451 0.6666
vn 0.4237 0.2401 0.8734
vn -0.2496 0.9430 0.2200
vn 0.3499 0.2728 0.8962
vn 0.7350 0.6590 -0.1598
vn 0.7948 0.6016 -0.0792
vn 0.4188 0.5129 0.7494
vn 0.0000 0.2323 0.9726
vn -0.8211 0.5553 0.1322
vn -0.4188 0.5129 0.7494
vn -0.0000 0.3666 -0.9304
vn 0.0000 1.0000 0.0004
vn -0.0000 0.3027 -0.9531
vn 0.0308 0.5211 0.8529
vn 0.0188 -0.6193 0.7849
vn 0.9744 0.1182 0.1914
vn 0.8607 0.4498 0.2386
vn 0.0000 -0.0875 -0.9962
vn -0.0000 0.5649 -0.8252
vn 0.7560 0.4316 -0.4921
vn 0.0001 -0.0874 -0.9962
vn -0.5783 0.4038 -0.7088
vn -0.0000 0.7902 0.6129
vn -0.9298 0.0306 0.3668
vn -0.8539 0.4304 0.2925
vn -0.5563 0.2489 -0.7928
vn 0.6610 -0.1104 0.7422
vn -0.6610 -0.1104 0.7422
vn -0.0000 -0.1229 0.9924
vn 0.2176 0.2462 -0.9445
vn -0.0014 0.6046 -0.7966
vn 0.3157 -0.1961 -0.9284
vn 0.2652 0.9374 0.2258
vn -0.1159 0.8732 0.4733
vn -0.2404 0.8473 0.4737
vn -0.1900 0.3679 0.9102
vn -0.1974 0.7488 0.6328
vn -0.1383 0.0889 0.9864
vn -0.1141 0.2236 0.9680
vn -0.1183 -0.0276 0.9926
vn -0.0651 0.0862 0.9942
vn -0.1234 -0.0301 0.9919
vn -0.0454 0.0670 0.9967
vn -0.1148 -0.0401 0.9926
vn -0.0485 0.0634 0.9968
vn -0.1083 -0.0593 0.9923
vn -0.0184 0.0361 0.9992
vn -0.1967 -0.0942 0.9759
vn -0.1064 0.0281 0.9939
vn -0.2716 -0.1307 0.9535
vn -0.1816 -0.0626 0.9814
vn 0.1152 0.2497 0.9614
vn -0.0056 0.2872 0.9578
vn -0.0191 0.1406 0.9899
vn 0.1026 0.1630 0.9813
vn 0.0220 0.1571 0.9873
vn 0.0888 0.0252 0.9957
vn 0.0463 -0.0160 0.9988
vn 0.0922 -0.0725 0.9931
vn 0.0387 0.1335 0.9903
vn 0.1103 -0.0072 0.9939
vn 0.0303 0.1749 0.9841
vn 0.1307 0.1041 0.9859
vn 0.0200 0.1148 0.9932
vn 0.1447 0.0868 0.9857
vn 0.0728 0.1044 0.9919
vn 0.1964 0.0817 0.9771
vn 0.1556 0.0835 0.9843
vn 0.2543 0.0264 0.9668
vn 0.1852 0.0636 0.9806
vn 0.2724 -0.0338 0.9616
vn 0.1938 -0.0115 0.9810
vn 0.3012 -0.0167 0.9534
usemtl unnamed
s off
f 43/1/1 25/2/2 24/3/3
f 24/3/4 43/1/5 46/4/6
f 45/5/7 37/6/8 24/3/9
f 47/7/10 45/5/11 24/3/12
s 1
f 1/8/13 2/9/14 3/10/15
f 1/11/13 3/12/15 4/13/16
f 5/14/17 6/15/18 7/16/19
f 1/8/13 5/14/17 7/16/19
f 2/9/14 1/8/13 7/16/19
f 4/13/16 5/17/17 1/11/13
f 3/10/15 2/9/14 8/18/20
f 4/13/16 3/12/15 8/19/20
f 7/16/19 6/15/18 9/20/21
f 7/16/19 9/20/21 8/18/20
f 7/16/19 8/18/20 2/9/14
f 8/19/20 9/21/21 4/13/16
f 10/22/22 11/23/23 12/24/24
f 13/25/25 14/26/26 15/27/27
f 16/28/28 15/27/27 14/26/26
f 17/29/29 18/30/30 16/28/28
f 12/24/24 11/23/23 19/31/31
f 19/31/31 18/30/30 20/32/32
f 21/33/33 22/34/34 17/29/29
f 20/32/32 22/34/34 23/35/35
f 23/35/35 22/34/34 21/33/33
f 18/30/30 17/29/29 49/36/36
f 11/23/23 15/27/27 16/28/28
f 16/28/28 18/30/30 19/31/31
f 15/27/27 11/23/23 10/22/22
f 10/22/22 12/24/24 14/26/26
f 20/32/32 12/24/24 19/31/31
f 17/29/29 16/28/28 14/26/26
f 12/24/24 20/32/32 23/35/35
f 14/26/26 21/33/33 17/29/29
f 19/31/31 11/23/23 16/28/28
f 13/25/25 15/27/27 10/22/22
f 13/25/25 10/22/22 14/26/26
f 24/3/37 25/2/38 26/37/39
f 88/38/40 87/39/41 24/3/37 26/37/39
f 36/40/42 24/3/37 87/39/41 86/41/43
f 26/42/39 28/43/44 27/44/45
f 25/45/38 29/46/46 28/43/44
f 26/42/39 25/45/38 28/43/44
f 30/47/47 31/48/48 32/49/49
f 33/50/50 30/47/47 32/49/49
f 33/50/50 32/49/49 34/51/51
f 35/52/52 25/53/53 34/51/54
f 32/54/49 31/55/48 34/56/51
f 36/40/42 37/6/55 24/3/37
f 89/57/56 88/38/40 26/37/39 27/58/45
f 27/44/45 28/43/44 36/59/42
f 28/43/44 29/46/46 37/60/55
f 28/43/44 37/60/55 36/59/42
f 38/61/57 31/48/48 30/47/47
f 38/61/57 30/47/47 39/62/58
f 34/51/51 38/61/57 39/62/58
f 34/51/54 37/63/59 35/52/52
f 34/56/51 31/55/48 38/64/57
f 23/35/35 40/65/60 12/24/24
f 14/26/26 41/66/61 21/33/33
f 21/33/33 42/67/62 23/35/35
f 25/45/38 43/68/63 44/69/64
f 29/46/46 25/45/38 44/69/64
f 44/69/64 45/70/65 37/60/55
f 44/69/64 37/60/55 29/46/46
f 20/32/32 18/30/30 48/71/66
f 18/30/30 22/34/34 48/71/66
f 22/34/34 20/32/32 48/71/66
f 17/29/29 22/34/34 49/36/36
f 22/34/34 18/30/30 49/36/36
f 17/29/67 49/36/68 51/72/69 50/73/70
f 50/74/70 51/75/69 53/76/71 52/77/72
f 52/77/72 53/76/71 55/78/73 54/79/74
f 54/79/74 55/78/73 57/80/75 56/81/76
f 56/81/76 57/80/75 59/82/77 58/83/78
f 58/83/78 59/82/77 61/84/79 60/85/80
f 60/85/80 61/84/79 63/86/81 62/87/82
f 62/87/82 63/86/81 65/88/83 64/89/84
f 48/71/85 20/32/86 66/90/87 67/91/88
f 67/92/88 66/93/87 68/94/89 69/95/90
f 69/95/90 68/94/89 70/96/91 71/97/92
f 71/97/92 70/96/91 72/98/93 73/99/94
f 73/99/94 72/98/93 74/100/95 75/101/96
f 75/101/96 74/100/95 76/102/97 77/103/98
f 77/103/98 76/102/97 78/104/99 79/105/100
f 79/105/100 78/104/99 80/106/101 81/107/102
f 81/107/102 80/106/101 82/108/103 83/109/104
f 83/109/104 82/108/103 84/110/105 85/111/106
f 86/41/43 87/39/41 88/38/40 89/57/56
f 27/58/45 36/40/42 86/41/43 89/57/56
