# Blender v2.91.2 OBJ File: 'test.blend'
# www.blender.org
mtllib Block2x2.mtl
o Block.001
v -0.890529 0.434482 0.767313
v -0.909560 0.434482 0.671642
v -0.909560 -0.365518 0.671642
v -0.909560 -0.365518 -0.578358
v -0.909560 -0.365518 0.521642
v -0.909560 -0.365518 -0.728358
v -0.909560 0.434482 -0.728358
v -0.909560 0.434482 -0.578358
v -0.909560 0.434482 0.521642
v -0.890529 -0.365518 -0.824030
v -0.890529 0.434482 -0.824030
v -0.836336 -0.365518 -0.905135
v -0.836336 0.434482 -0.905135
v -0.755231 0.434482 -0.959328
v -0.659560 -0.365518 -0.978358
v -0.755231 -0.365518 -0.959328
v -0.659560 0.434482 -0.978358
v -0.509560 0.434482 -0.978358
v 0.740440 0.434482 -0.978358
v 0.740440 -0.365518 -0.978358
v 0.590440 -0.365518 -0.978358
v -0.509560 -0.365518 -0.978358
v 0.836112 -0.365518 -0.959328
v 0.836112 0.434482 -0.959328
v 0.917217 -0.365518 -0.905135
v 0.917217 0.434482 -0.905135
v 0.971410 -0.365518 -0.824030
v 0.971410 0.434482 -0.824030
v 0.990440 0.434482 -0.728358
v 0.990440 -0.365518 -0.728358
v 0.990440 0.434482 0.521642
v 0.990440 0.434482 0.671642
v 0.990440 -0.365518 0.671642
v 0.990440 -0.365518 0.521642
v 0.990440 -0.365518 -0.578358
v 0.971410 -0.365518 0.767313
v 0.971410 0.434482 0.767313
v 0.917217 0.434482 0.848418
v 0.917217 -0.365518 0.848418
v 0.836112 -0.365518 0.902611
v 0.836112 0.434482 0.902611
v 0.740440 -0.365518 0.921642
v 0.740440 0.434482 0.921642
v -0.509560 -0.365518 0.921642
v 0.590440 -0.365518 0.921642
v -0.659560 -0.365518 0.921642
v -0.659560 0.434482 0.921642
v -0.509560 0.434482 0.921642
v 0.590440 0.434482 0.921642
v -0.755231 -0.365518 0.902611
v -0.755231 0.434482 0.902611
v -0.836336 0.434482 0.848418
v -0.836336 -0.365518 0.848418
v 0.990440 0.434482 -0.578358
v 0.590440 0.434482 -0.978358
v -0.890529 -0.365518 0.767313
v 0.879022 -0.465518 0.729044
v 0.890440 -0.465518 0.671642
v 0.890440 -0.465518 -0.728358
v 0.879022 -0.465518 -0.785761
v 0.797843 -0.465518 -0.866940
v 0.740440 -0.465518 -0.878358
v -0.659560 -0.465518 -0.878358
v -0.716963 -0.465518 -0.866940
v -0.765626 -0.465518 -0.834424
v -0.798142 -0.465518 -0.785761
v -0.809560 -0.465518 -0.728358
v -0.809560 -0.465518 0.671642
v -0.798142 -0.465518 0.729044
v -0.765626 -0.465518 0.777708
v -0.716963 -0.465518 0.810223
v -0.659560 -0.465518 0.821642
v 0.740440 -0.465518 0.821642
v 0.797843 -0.465518 0.810223
v 0.846506 -0.465518 0.777708
v 0.846506 -0.465518 -0.834424
v -0.716963 0.534482 -0.866940
v -0.659560 0.534482 -0.878358
v 0.740440 0.534482 -0.878358
v 0.797843 0.534482 -0.866940
v 0.846506 0.534482 -0.834424
v 0.879022 0.534482 -0.785761
v 0.890440 0.534482 -0.728358
v 0.890440 0.534482 0.671642
v 0.879022 0.534482 0.729045
v 0.797843 0.534482 0.810224
v 0.740440 0.534482 0.821642
v -0.659560 0.534482 0.821642
v -0.716963 0.534482 0.810224
v -0.765626 0.534482 0.777708
v -0.798142 0.534482 0.729045
v -0.809560 0.534482 0.671642
v -0.809560 0.534482 -0.728358
v -0.798142 0.534482 -0.785761
v -0.765626 0.534482 -0.834424
v 0.846506 0.534482 0.777708
vt 0.106141 0.411559
vt 0.104399 0.390019
vt 0.003544 0.283164
vt 0.075637 0.424721
vt 0.038062 0.443052
vt 0.037065 0.450240
vt 0.074631 0.435075
vt 0.037926 0.457181
vt 0.039904 0.463608
vt 0.069311 0.454507
vt 0.072261 0.444997
vt 0.071890 0.568184
vt 0.042177 0.580816
vt 0.038777 0.590499
vt 0.073771 0.574086
vt 0.036906 0.600614
vt 0.074870 0.579921
vt 0.036247 0.611070
vt 0.038084 0.621684
vt 0.074282 0.586879
vt 0.048390 0.628589
vt 0.011876 0.617976
vt 0.120605 0.805900
vt 0.126766 0.755257
vt 0.125003 0.715586
vt 0.015906 0.602328
vt 0.020384 0.587753
vt 0.120736 0.682269
vt 0.026717 0.574372
vt 0.005997 0.383005
vt 0.096795 0.464722
vt 0.101110 0.448574
vt 0.104565 0.430782
vt 0.001378 0.355453
vt 0.012785 0.406603
vt 0.082733 0.473349
vt 0.033251 0.425993
vt 0.113814 0.654289
vt 0.009098 0.635725
vt 0.079492 0.790221
vt 0.063068 0.593662
vt 0.090182 0.629375
vt 0.060079 0.463660
vt 0.042824 0.470117
vt 0.051540 0.571001
vt 0.061814 0.557724
vt 0.039228 0.569848
vt 0.030648 0.651766
vt 0.069123 0.562241
vt 0.050518 0.475357
vt 0.074134 0.413996
vt 0.061812 0.405576
vt 0.046759 0.278777
vt 0.085875 0.376435
vt 0.000036 0.322818
vt 0.024425 0.607648
vt 0.022243 0.612056
vt 0.075706 0.575441
vt 0.072706 0.575532
vt 0.068522 0.570290
vt 0.066825 0.567195
vt 0.063242 0.449838
vt 0.065580 0.442357
vt 0.067598 0.434377
vt 0.071101 0.427207
vt 0.075835 0.421765
vt 0.032894 0.332216
vt 0.028906 0.344832
vt 0.028726 0.362086
vt 0.025906 0.383182
vt 0.022716 0.403582
vt 0.028575 0.573778
vt 0.029544 0.587184
vt 0.027659 0.598978
vt 0.070604 0.573356
vt 0.044007 0.461383
vt 0.045437 0.464764
vt 0.048038 0.586094
vt 0.046530 0.594034
vt 0.043802 0.602422
vt 0.039387 0.609973
vt 0.033671 0.616267
vt 0.091876 0.738512
vt 0.092327 0.727695
vt 0.095730 0.681348
vt 0.097844 0.656577
vt 0.093117 0.465388
vt 0.092123 0.451321
vt 0.091393 0.437144
vt 0.092844 0.425665
vt 0.094354 0.419053
vt 0.037132 0.455146
vt 0.050489 0.435611
vt 0.039402 0.455680
vt 0.042210 0.457771
vt 0.094307 0.705583
vn -0.9239 -0.0000 0.3827
vn -1.0000 -0.0000 -0.0000
vn -1.0000 -0.0001 0.0000
vn -0.9239 0.0000 -0.3827
vn -1.0000 0.0001 -0.0000
vn -0.7071 0.0000 -0.7071
vn -0.3827 0.0000 -0.9239
vn -0.0000 0.0002 -1.0000
vn 0.3827 0.0000 -0.9239
vn 0.0000 0.0001 -1.0000
vn 0.7071 0.0000 -0.7071
vn 0.9239 0.0000 -0.3827
vn 1.0000 -0.0000 -0.0000
vn 1.0000 0.0001 -0.0000
vn 0.9239 -0.0000 0.3827
vn 1.0000 -0.0001 0.0001
vn 0.7071 -0.0000 0.7071
vn 0.3827 -0.0000 0.9239
vn 0.0001 -0.0001 1.0000
vn -0.3827 -0.0000 0.9239
vn -0.0001 -0.0001 1.0000
vn -0.7071 -0.0000 0.7071
vn -0.0000 -0.0000 1.0000
vn 0.0000 0.0000 -1.0000
vn 0.6533 -0.7071 0.2706
vn 0.7071 -0.7071 -0.0000
vn 0.6533 -0.7071 -0.2706
vn 0.5000 -0.7071 -0.5000
vn 0.2706 -0.7071 -0.6533
vn 0.0000 -0.7071 -0.7071
vn -0.2706 -0.7071 -0.6533
vn -0.5000 -0.7071 -0.5000
vn -0.6533 -0.7071 -0.2706
vn -0.7071 -0.7071 -0.0000
vn -0.6533 -0.7071 0.2706
vn -0.5000 -0.7071 0.5000
vn -0.2706 -0.7071 0.6533
vn 0.0000 -0.7071 0.7071
vn 0.2706 -0.7071 0.6533
vn 0.5000 -0.7071 0.5000
vn -0.2706 0.7071 -0.6533
vn 0.0000 0.7071 -0.7071
vn 0.2706 0.7071 -0.6533
vn 0.5000 0.7071 -0.5000
vn 0.6533 0.7071 -0.2706
vn 0.7071 0.7071 -0.0000
vn 0.6533 0.7071 0.2706
vn 0.5000 0.7071 0.5000
vn 0.2706 0.7071 0.6533
vn 0.0000 0.7071 0.7071
vn -0.2706 0.7071 0.6533
vn -0.5000 0.7071 0.5000
vn -0.6533 0.7071 0.2706
vn -0.7071 0.7071 0.0000
vn -0.6533 0.7071 -0.2706
vn -0.5000 0.7071 -0.5000
vn 0.0000 1.0000 -0.0000
vn 0.0000 -1.0000 -0.0000
usemtl Brick.001
s 1
f 1/1/1 2/2/2 3/3/3
f 10/4/4 7/5/5 11/6/4
f 12/7/6 11/6/4 13/8/6
f 12/7/6 13/8/6 14/9/7
f 14/9/7 15/10/8 16/11/7
f 23/12/9 19/13/10 24/14/9
f 25/15/11 24/14/9 26/16/11
f 27/17/12 26/16/11 28/18/12
f 29/19/13 30/20/14 27/17/12
f 29/19/13 54/21/13 30/20/14
f 36/22/15 32/23/16 37/24/15
f 38/25/17 39/26/17 36/22/15
f 38/25/17 40/27/18 39/26/17
f 41/28/18 42/29/19 40/27/18
f 50/30/20 47/31/21 51/32/20
f 50/30/20 51/32/20 52/33/22
f 53/34/22 50/30/20 52/33/22
f 50/30/20 46/35/23 47/31/21
f 48/36/23 46/35/23 44/37/23
f 41/28/18 43/38/23 42/29/19
f 38/25/17 41/28/18 40/27/18
f 37/24/15 38/25/17 36/22/15
f 36/22/15 33/39/13 32/23/16
f 54/21/13 31/40/13 35/41/13
f 48/36/23 47/31/21 46/35/23
f 43/38/23 49/42/23 42/29/19
f 31/40/13 32/23/16 33/39/13
f 30/20/14 54/21/13 35/41/13
f 22/43/24 15/10/8 17/44/24
f 55/45/24 19/13/10 21/46/24
f 49/42/23 48/36/23 45/47/23
f 31/40/13 33/39/13 34/48/13
f 42/29/19 49/42/23 45/47/23
f 44/37/23 45/47/23 48/36/23
f 28/18/12 29/19/13 27/17/12
f 27/17/12 25/15/11 26/16/11
f 25/15/11 23/12/9 24/14/9
f 23/12/9 20/49/24 19/13/10
f 21/46/24 22/43/24 18/50/24
f 14/9/7 17/44/24 15/10/8
f 16/11/7 12/7/6 14/9/7
f 12/7/6 10/4/4 11/6/4
f 10/4/4 6/51/2 7/5/5
f 4/52/2 5/53/2 9/54/2
f 53/34/22 52/33/22 1/1/1
f 56/55/1 53/34/22 1/1/1
f 1/1/1 3/3/3 56/55/1
f 57/56/25 58/57/26 33/39/26
f 35/41/26 58/57/26 59/58/26
f 30/20/26 59/58/26 60/59/27
f 60/59/27 25/15/28 27/17/27
f 61/60/29 23/12/29 25/15/28
f 62/61/30 20/49/30 23/12/29
f 21/46/30 62/61/30 63/62/30
f 16/11/31 63/62/30 64/63/31
f 65/64/32 12/7/32 16/11/31
f 66/65/33 10/4/33 12/7/32
f 67/66/34 6/51/34 10/4/33
f 5/53/34 67/66/34 68/67/34
f 56/55/35 68/67/34 69/68/35
f 70/69/36 53/34/36 56/55/35
f 70/69/36 50/30/37 53/34/36
f 71/70/37 46/35/38 50/30/37
f 44/37/38 46/35/38 72/71/38
f 45/47/38 72/71/38 73/72/38
f 42/29/38 73/72/38 74/73/39
f 74/73/39 39/26/40 40/27/39
f 75/74/40 36/22/25 39/26/40
f 74/73/39 75/74/40 39/26/40
f 40/27/39 42/29/38 74/73/39
f 73/72/38 42/29/38 45/47/38
f 45/47/38 44/37/38 72/71/38
f 71/70/37 72/71/38 46/35/38
f 70/69/36 71/70/37 50/30/37
f 69/68/35 70/69/36 56/55/35
f 56/55/35 3/3/34 68/67/34
f 68/67/34 3/3/34 5/53/34
f 5/53/34 4/52/34 67/66/34
f 4/52/34 6/51/34 67/66/34
f 66/65/33 67/66/34 10/4/33
f 65/64/32 66/65/33 12/7/32
f 64/63/31 65/64/32 16/11/31
f 16/11/31 15/10/30 63/62/30
f 63/62/30 15/10/30 22/43/30
f 63/62/30 22/43/30 21/46/30
f 21/46/30 20/49/30 62/61/30
f 61/60/29 62/61/30 23/12/29
f 76/75/28 61/60/29 25/15/28
f 60/59/27 76/75/28 25/15/28
f 27/17/27 30/20/26 60/59/27
f 59/58/26 30/20/26 35/41/26
f 35/41/26 34/48/26 58/57/26
f 34/48/26 33/39/26 58/57/26
f 75/74/40 57/56/25 36/22/25
f 57/56/25 33/39/26 36/22/25
f 77/76/41 78/77/42 17/44/42
f 78/77/42 79/78/42 55/45/42
f 19/13/42 79/78/42 80/79/43
f 80/79/43 26/16/44 24/14/43
f 81/80/44 28/18/45 26/16/44
f 82/81/45 29/19/46 28/18/45
f 54/21/46 29/19/46 83/82/46
f 83/82/46 84/83/46 54/21/46
f 32/23/46 84/83/46 85/84/47
f 85/84/47 38/25/48 37/24/47
f 86/85/49 41/28/49 38/25/48
f 87/86/50 43/38/50 41/28/49
f 87/86/50 88/87/50 49/42/50
f 51/32/51 88/87/50 89/88/51
f 90/89/52 52/33/52 51/32/51
f 91/90/53 1/1/53 52/33/52
f 92/91/54 2/2/54 1/1/53
f 92/91/54 93/92/54 9/54/54
f 93/92/54 8/93/54 9/54/54
f 93/92/54 7/5/54 8/93/54
f 11/6/55 93/92/54 94/94/55
f 95/95/56 13/8/56 11/6/55
f 95/95/56 14/9/41 13/8/56
f 94/94/55 95/95/56 11/6/55
f 11/6/55 7/5/54 93/92/54
f 9/54/54 2/2/54 92/91/54
f 91/90/53 92/91/54 1/1/53
f 90/89/52 91/90/53 52/33/52
f 89/88/51 90/89/52 51/32/51
f 51/32/51 47/31/50 88/87/50
f 88/87/50 48/36/50 49/42/50
f 88/87/50 47/31/50 48/36/50
f 49/42/50 43/38/50 87/86/50
f 86/85/49 87/86/50 41/28/49
f 96/96/48 86/85/49 38/25/48
f 85/84/47 96/96/48 38/25/48
f 37/24/47 32/23/46 85/84/47
f 84/83/46 32/23/46 31/40/46
f 84/83/46 31/40/46 54/21/46
f 82/81/45 83/82/46 29/19/46
f 81/80/44 82/81/45 28/18/45
f 80/79/43 81/80/44 26/16/44
f 24/14/43 19/13/42 80/79/43
f 79/78/42 19/13/42 55/45/42
f 55/45/42 18/50/42 78/77/42
f 18/50/42 17/44/42 78/77/42
f 95/95/56 77/76/41 14/9/41
f 77/76/41 17/44/42 14/9/41
f 77/76/57 95/95/57 94/94/57
f 78/77/57 94/94/57 93/92/57
f 79/78/57 93/92/57 92/91/57
f 92/91/57 88/87/57 83/82/57
f 87/86/57 84/83/57 83/82/57
f 86/85/57 85/84/57 84/83/57
f 86/85/57 96/96/57 85/84/57
f 87/86/57 86/85/57 84/83/57
f 88/87/57 87/86/57 83/82/57
f 92/91/57 89/88/57 88/87/57
f 91/90/57 90/89/57 89/88/57
f 92/91/57 91/90/57 89/88/57
f 92/91/57 83/82/57 79/78/57
f 83/82/57 82/81/57 79/78/57
f 82/81/57 81/80/57 80/79/57
f 82/81/57 80/79/57 79/78/57
f 79/78/57 78/77/57 93/92/57
f 78/77/57 77/76/57 94/94/57
f 61/60/58 76/75/58 60/59/58
f 62/61/58 60/59/58 59/58/58
f 63/62/58 59/58/58 58/57/58
f 58/57/58 57/56/58 73/72/58
f 73/72/58 72/71/58 67/66/58
f 67/66/58 66/65/58 64/63/58
f 66/65/58 65/64/58 64/63/58
f 72/71/58 68/67/58 67/66/58
f 71/70/58 69/68/58 68/67/58
f 71/70/58 70/69/58 69/68/58
f 72/71/58 71/70/58 68/67/58
f 57/56/58 74/73/58 73/72/58
f 57/56/58 75/74/58 74/73/58
f 73/72/58 67/66/58 63/62/58
f 63/62/58 58/57/58 73/72/58
f 67/66/58 64/63/58 63/62/58
f 63/62/58 62/61/58 59/58/58
f 62/61/58 61/60/58 60/59/58
f 7/5/5 6/51/2 4/52/2
f 9/54/2 8/93/2 4/52/2
f 19/13/10 20/49/24 21/46/24
f 22/43/24 17/44/24 18/50/24
f 5/53/2 3/3/3 2/2/2
f 18/50/24 55/45/24 21/46/24
f 8/93/2 7/5/5 4/52/2
f 5/53/2 2/2/2 9/54/2
f 34/48/13 35/41/13 31/40/13
