# Blender v2.90.1 OBJ File: 'test.blend'
# www.blender.org
mtllib gem_yellow.mtl
o Gem1_Circle.001
v -0.003981 0.373770 0.000000
v -0.253981 -0.126229 0.000000
v 0.246019 -0.126229 0.000000
v -0.128981 -0.042896 -0.050000
v -0.003981 0.207104 -0.050000
v 0.121019 -0.042896 -0.050000
v -0.128981 -0.042896 0.050000
v -0.003981 0.207104 0.050000
v 0.121019 -0.042896 0.050000
vt 0.112500 0.502500
vt 0.062500 0.997500
vt 0.062500 0.832500
vt 0.087500 0.585000
vt 0.037500 0.585000
vt 0.062500 0.832500
vt 0.087500 0.585000
vt 0.012500 0.502500
vt 0.037500 0.585000
vn 0.4983 0.2491 0.8305
vn 0.0000 0.0000 -1.0000
vn 0.4983 0.2491 -0.8305
vn 0.0000 -0.5145 -0.8575
vn -0.4983 0.2491 -0.8305
vn 0.0000 -0.0000 1.0000
vn 0.0000 -0.5145 0.8575
vn -0.4983 0.2491 0.8305
usemtl Material.002
s 1
f 3/1/1 1/2/1 8/3/1 9/4/1
f 4/5/2 5/6/2 6/7/2
f 1/2/3 3/1/3 6/7/3 5/6/3
f 3/1/4 2/8/4 4/5/4 6/7/4
f 2/8/5 1/2/5 5/6/5 4/5/5
f 7/9/6 9/4/6 8/3/6
f 2/8/7 3/1/7 9/4/7 7/9/7
f 1/2/8 2/8/8 7/9/8 8/3/8
