# Blender v2.90.1 OBJ File: 'card.blend'
# www.blender.org
mtllib heart.mtl
o Heart_Plane.002
v -0.182026 0.162070 0.050000
v 0.192974 0.158864 0.050000
v -0.143125 0.245330 0.050000
v 0.156474 0.244796 0.050000
v -0.157194 0.025818 0.050000
v 0.005954 -0.109365 0.050000
v 0.170543 0.029558 0.050000
v 0.063925 0.265100 0.050000
v 0.005474 0.198845 0.050000
v -0.053938 0.265635 0.050000
v -0.182026 0.162070 -0.050000
v 0.170543 0.029558 -0.050000
v 0.192974 0.160624 -0.050000
v 0.156474 0.246556 -0.050000
v -0.053938 0.265635 -0.050000
v -0.143125 0.245330 -0.050000
v -0.157194 0.025818 -0.050000
v 0.005954 -0.109365 -0.050000
v 0.063925 0.265100 -0.050000
v 0.005474 0.198845 -0.050000
v 0.083264 0.303912 -0.000000
v 0.206663 0.278600 -0.000000
v -0.244670 0.166538 0.000000
v 0.255330 0.164024 -0.000000
v 0.005330 0.215571 -0.000000
v 0.225421 -0.010144 -0.000000
v -0.073885 0.304624 -0.000000
v -0.192802 0.277552 -0.000000
v -0.211560 -0.015131 0.000000
v 0.005970 -0.195375 -0.000000
vt 0.012500 0.360795
vt 0.025029 0.356371
vt 0.032809 0.438799
vt 0.022874 0.470698
vt 0.029995 0.221481
vt 0.050646 0.458900
vt 0.062529 0.392778
vt 0.062625 0.087650
vt 0.025029 0.356371
vt 0.032809 0.438799
vt 0.074219 0.458371
vt 0.095542 0.225184
vt 0.102767 0.471736
vt 0.092729 0.440012
vt 0.078087 0.496795
vt 0.062500 0.409337
vt 0.106518 0.185879
vt 0.100029 0.354940
vt 0.112500 0.358305
vt 0.046657 0.497500
vt 0.019122 0.180942
vt 0.062628 0.002500
vt 0.050646 0.458900
vt 0.029995 0.221482
vt 0.062625 0.087650
vt 0.095542 0.225184
vt 0.062529 0.392778
vt 0.074219 0.458371
vt 0.100029 0.353197
vt 0.092729 0.438270
vn -0.5878 0.2746 0.7610
vn -0.0000 -0.0000 -1.0000
vn -0.5878 0.2746 -0.7610
vn 0.1529 0.7531 -0.6399
vn -0.7318 0.6456 -0.2181
vn 0.6258 -0.1073 -0.7726
vn 0.7297 0.6491 -0.2150
vn -0.1692 0.7433 -0.6472
vn -0.6247 -0.1139 -0.7725
vn -0.3845 -0.4640 -0.7981
vn 0.3905 -0.4626 -0.7959
vn 0.0000 0.0000 1.0000
vn 0.3905 -0.4626 0.7959
vn -0.3845 -0.4640 0.7981
vn -0.6247 -0.1139 0.7725
vn -0.1692 0.7433 0.6472
vn 0.7297 0.6491 0.2150
vn 0.6265 -0.1081 0.7719
vn -0.7318 0.6456 0.2181
vn 0.5927 0.2517 0.7651
vn 0.5967 0.2534 -0.7614
vn 0.1572 0.7440 0.6495
usemtl Material.001
s 1
f 23/1/1 1/2/1 3/3/1 28/4/1
f 17/5/2 15/6/2 20/7/2 18/8/2
f 15/6/2 17/5/2 11/9/2 16/10/2
f 28/4/3 16/10/3 11/9/3 23/1/3
f 18/8/2 20/7/2 19/11/2 12/12/2
f 22/13/4 14/14/4 19/11/4 21/15/4
f 21/15/5 19/11/5 20/7/5 25/16/5
f 26/17/6 12/12/6 13/18/6 24/19/6
f 25/16/7 20/7/7 15/6/7 27/20/7
f 12/12/2 19/11/2 14/14/2 13/18/2
f 27/20/8 15/6/8 16/10/8 28/4/8
f 23/1/9 11/9/9 17/5/9 29/21/9
f 29/21/10 17/5/10 18/8/10 30/22/10
f 30/22/11 18/8/11 12/12/11 26/17/11
f 10/23/12 3/3/12 1/2/12 5/24/12
f 6/25/13 30/22/13 26/17/13 7/26/13
f 5/24/12 6/25/12 9/27/12 10/23/12
f 5/24/14 29/21/14 30/22/14 6/25/14
f 1/2/15 23/1/15 29/21/15 5/24/15
f 10/23/16 27/20/16 28/4/16 3/3/16
f 6/25/12 7/26/12 8/28/12 9/27/12
f 9/27/17 25/16/17 27/20/17 10/23/17
f 7/26/12 2/29/12 4/30/12 8/28/12
f 7/26/18 26/17/18 24/19/18 2/29/18
f 8/28/19 21/15/19 25/16/19 9/27/19
f 4/30/20 2/29/20 24/19/20 22/13/20
f 13/18/21 14/14/21 22/13/21 24/19/21
f 4/30/22 22/13/22 21/15/22 8/28/22
