# Blender v2.91.2 OBJ File: 'test.blend'
# www.blender.org
mtllib hill.mtl
o Grass.025_Grass.015
v -1.003433 -0.001085 2.382019
v -1.171740 -0.110624 2.788412
v -0.023890 -0.110624 3.016690
v -3.023890 -0.110624 3.016691
v -2.145106 -0.110623 2.138116
v -1.834089 -0.001085 1.827068
v -2.795498 -0.110623 1.164815
v -2.389122 -0.001085 0.996468
v -3.023891 -0.110623 0.016691
v -2.006799 0.188874 0.838093
v -2.583986 -0.001069 0.016691
v -1.629120 0.391491 0.681643
v -2.169803 0.189067 0.016691
v -1.246167 0.581212 0.523008
v -1.761021 0.391673 0.016691
v -0.851485 0.739885 0.359515
v -1.346859 0.581224 0.016691
v -0.442887 0.849030 0.190256
v -0.919677 0.739886 0.016691
v -0.023891 0.889377 0.016691
v -0.477411 0.849030 0.016691
v -0.344564 0.849030 0.337395
v -0.197415 0.849030 0.435704
v -0.023891 0.739882 0.912472
v -0.023891 0.849014 0.470209
v -0.366632 0.739885 0.844319
v -0.023890 0.581213 1.339658
v -0.530087 0.581212 1.239017
v -0.023890 0.391486 1.754177
v -0.688684 0.391491 1.621985
v -0.023890 0.188899 2.162943
v -0.845097 0.188873 1.999680
v -0.023890 -0.001023 2.576675
v -1.252431 0.391491 1.245353
v -1.541482 0.188873 1.534433
v -0.959343 0.581212 0.952236
v -0.657279 0.739885 0.650141
vt 0.019792 -0.045963
vt 0.019792 -0.500000
vt -0.499860 -0.500000
vt -0.500000 1.500000
vt -0.347817 0.265228
vt 0.085716 0.914144
vt 0.500010 -0.045963
vt 0.980224 -0.500000
vt 0.500010 -0.500000
vt 0.980224 -0.045963
vt 1.500000 -0.500000
vt 0.980224 0.266717
vt 1.500000 -0.045963
vt 0.980224 0.535715
vt 1.500000 0.266717
vt 0.980224 0.785264
vt 1.500000 0.535715
vt 0.980224 1.026356
vt 1.500000 0.785264
vt 0.980224 1.264124
vt 1.500000 1.026356
vt 0.980224 1.500000
vt 1.500000 1.264124
vt 0.500010 1.264124
vt 0.019792 1.264124
vt 0.019792 1.500000
vt -0.499860 1.026356
vt -0.499860 1.264124
vt 0.019792 1.026356
vt -0.499860 0.785264
vt 0.019792 0.785264
vt -0.499860 0.535715
vt 0.019792 0.535715
vt -0.499860 0.266717
vt 0.019792 0.266717
vt -0.499860 -0.045963
vt 0.500010 0.535715
vt 0.500010 0.266717
vt 0.500010 0.785264
vt 0.500010 1.026356
vt -0.499860 1.500000
vt 0.500010 1.500000
vt 0.734589 1.347741
vt 1.500000 1.500000
vt -0.500000 -0.500000
vn -0.1425 0.9281 0.3441
vn 0.0003 1.0000 -0.0007
vn 0.0000 1.0000 -0.0007
vn 0.0000 1.0000 0.0000
vn 0.0005 1.0000 -0.0005
vn -0.2633 0.9281 0.2634
vn 0.0007 1.0000 -0.0003
vn -0.3441 0.9281 0.1425
vn 0.0007 1.0000 0.0000
vn -0.4089 0.8967 0.1694
vn -0.3724 0.9281 -0.0000
vn -0.4039 0.8994 0.1673
vn -0.4426 0.8967 -0.0000
vn -0.3590 0.9214 0.1487
vn -0.4372 0.8994 -0.0000
vn -0.2779 0.9537 0.1151
vn -0.3886 0.9214 -0.0000
vn -0.1579 0.9853 0.0654
vn -0.3008 0.9537 0.0000
vn 0.0002 1.0000 -0.0005
vn -0.1709 0.9853 0.0000
vn -0.1208 0.9853 0.1208
vn -0.0654 0.9853 0.1579
vn -0.0000 0.9537 0.3008
vn -0.0000 0.9853 0.1709
vn -0.1151 0.9537 0.2779
vn -0.0000 0.9214 0.3886
vn -0.1487 0.9214 0.3590
vn -0.0000 0.8994 0.4372
vn -0.1673 0.8994 0.4039
vn -0.0000 0.8967 0.4426
vn -0.1693 0.8967 0.4089
vn -0.0000 0.9281 0.3724
vn -0.3091 0.8994 0.3091
vn -0.3130 0.8967 0.3130
vn -0.2747 0.9214 0.2748
vn -0.2127 0.9537 0.2127
usemtl Grass.006
s 1
f 1/1/1 2/2/2 3/3/3
f 4/4/4 2/5/2 5/6/5
f 6/7/6 7/8/7 5/9/5
f 8/10/8 9/11/9 7/8/7
f 8/10/8 10/12/10 11/13/11
f 10/12/10 12/14/12 13/15/13
f 12/14/12 14/16/14 15/17/15
f 14/16/14 16/18/16 17/19/17
f 16/18/16 18/20/18 19/21/19
f 18/20/18 20/22/20 21/23/21
f 22/24/22 23/25/23 20/26/20
f 23/25/23 24/27/24 25/28/25
f 26/29/26 27/30/27 24/27/24
f 28/31/28 29/32/29 27/30/27
f 30/33/30 31/34/31 29/32/29
f 32/35/32 33/36/33 31/34/31
f 34/37/34 35/38/35 32/35/32
f 36/39/36 34/37/34 30/33/30
f 30/33/30 34/37/34 32/35/32
f 30/33/30 32/35/32 31/34/31
f 37/40/37 36/39/36 28/31/28
f 28/31/28 36/39/36 30/33/30
f 28/31/28 30/33/30 29/32/29
f 26/29/26 37/40/37 28/31/28
f 26/29/26 28/31/28 27/30/27
f 23/25/23 26/29/26 24/27/24
f 22/24/22 37/40/37 26/29/26
f 23/25/23 22/24/22 26/29/26
f 23/25/23 25/28/25 20/41/20
f 18/20/18 22/24/22 20/42/20
f 18/20/18 21/23/21 19/21/19
f 22/24/22 18/20/18 37/40/37
f 18/20/18 16/18/16 37/40/37
f 16/18/16 19/21/19 17/19/17
f 37/40/37 16/18/16 36/39/36
f 16/18/16 14/16/14 36/39/36
f 14/16/14 17/19/17 15/17/15
f 36/39/36 14/16/14 34/37/34
f 14/16/14 12/14/12 34/37/34
f 12/14/12 15/17/15 13/15/13
f 34/37/34 12/14/12 35/38/35
f 12/14/12 10/12/10 35/38/35
f 10/12/10 13/15/13 11/13/11
f 8/10/8 11/13/11 9/11/9
f 10/12/10 8/10/8 6/7/6
f 35/38/35 10/12/10 6/7/6
f 6/7/6 8/10/8 7/8/7
f 7/43/7 9/44/9 4/4/4
f 4/4/4 5/6/5 7/43/7
f 4/4/4 3/45/3 2/5/2
f 6/7/6 5/9/5 2/2/2
f 35/38/35 6/7/6 1/1/1
f 32/35/32 35/38/35 1/1/1
f 32/35/32 1/1/1 33/36/33
f 1/1/1 6/7/6 2/2/2
f 1/1/1 3/3/3 33/36/33
o Grass.029_Grass.015
v -2.389219 -0.001085 -0.962852
v -2.795612 -0.110624 -1.131159
v -3.023890 -0.110624 0.016691
v -3.023890 -0.110624 -2.983309
v -2.145316 -0.110623 -2.104525
v -1.834268 -0.001085 -1.793507
v -1.172015 -0.110623 -2.754917
v -1.003667 -0.001085 -2.348541
v -0.023890 -0.110623 -2.983309
v -0.845293 0.188874 -1.966217
v -0.023891 -0.001069 -2.543404
v -0.688843 0.391491 -1.588538
v -0.023891 0.189067 -2.129222
v -0.530208 0.581212 -1.205585
v -0.023891 0.391673 -1.720439
v -0.366714 0.739885 -0.810903
v -0.023891 0.581224 -1.306277
v -0.197456 0.849030 -0.402305
v -0.023891 0.739886 -0.879095
v -0.023891 0.889377 0.016691
v -0.023891 0.849030 -0.436829
v -0.344595 0.849030 -0.303982
v -0.442904 0.849030 -0.156833
v -0.919672 0.739882 0.016691
v -0.477409 0.849014 0.016691
v -0.851519 0.739885 -0.326051
v -1.346858 0.581213 0.016691
v -1.246217 0.581212 -0.489506
v -1.761377 0.391486 0.016691
v -1.629185 0.391491 -0.648103
v -2.170143 0.188899 0.016691
v -2.006880 0.188873 -0.804516
v -2.583875 -0.001023 0.016691
v -1.252553 0.391491 -1.211849
v -1.541633 0.188873 -1.500901
v -0.959436 0.581212 -0.918762
v -0.657341 0.739885 -0.616697
vt 0.019792 -0.045963
vt 0.019792 -0.500000
vt -0.499860 -0.500000
vt -0.500000 1.500000
vt -0.347817 0.265228
vt 0.085716 0.914144
vt 0.500010 -0.045963
vt 0.980224 -0.500000
vt 0.500010 -0.500000
vt 0.980224 -0.045963
vt 1.500000 -0.500000
vt 0.980224 0.266717
vt 1.500000 -0.045963
vt 0.980224 0.535715
vt 1.500000 0.266717
vt 0.980224 0.785264
vt 1.500000 0.535715
vt 0.980224 1.026356
vt 1.500000 0.785264
vt 0.980224 1.264124
vt 1.500000 1.026356
vt 0.980224 1.500000
vt 1.500000 1.264124
vt 0.500010 1.264124
vt 0.019792 1.264124
vt 0.019792 1.500000
vt -0.499860 1.026356
vt -0.499860 1.264124
vt 0.019792 1.026356
vt -0.499860 0.785264
vt 0.019792 0.785264
vt -0.499860 0.535715
vt 0.019792 0.535715
vt -0.499860 0.266717
vt 0.019792 0.266717
vt -0.499860 -0.045963
vt 0.500010 0.535715
vt 0.500010 0.266717
vt 0.500010 0.785264
vt 0.500010 1.026356
vt -0.499860 1.500000
vt 0.500010 1.500000
vt 0.734589 1.347741
vt 1.500000 1.500000
vt -0.500000 -0.500000
vn -0.3441 0.9281 -0.1425
vn 0.0007 1.0000 0.0003
vn 0.0007 1.0000 0.0000
vn -0.0000 1.0000 0.0000
vn 0.0005 1.0000 0.0005
vn -0.2634 0.9281 -0.2633
vn 0.0003 1.0000 0.0007
vn -0.1425 0.9281 -0.3441
vn -0.0000 1.0000 0.0007
vn -0.1694 0.8967 -0.4089
vn 0.0000 0.9281 -0.3724
vn -0.1673 0.8994 -0.4039
vn 0.0000 0.8967 -0.4426
vn -0.1487 0.9214 -0.3590
vn 0.0000 0.8994 -0.4372
vn -0.1151 0.9537 -0.2779
vn 0.0000 0.9214 -0.3886
vn -0.0654 0.9853 -0.1579
vn -0.0000 0.9537 -0.3008
vn 0.0005 1.0000 0.0002
vn -0.0000 0.9853 -0.1709
vn -0.1208 0.9853 -0.1208
vn -0.1579 0.9853 -0.0654
vn -0.3008 0.9537 -0.0000
vn -0.1709 0.9853 -0.0000
vn -0.2779 0.9537 -0.1151
vn -0.3886 0.9214 -0.0000
vn -0.3590 0.9214 -0.1487
vn -0.4372 0.8994 -0.0000
vn -0.4039 0.8994 -0.1673
vn -0.4426 0.8967 -0.0000
vn -0.4089 0.8967 -0.1693
vn -0.3724 0.9281 -0.0000
vn -0.3091 0.8994 -0.3091
vn -0.3130 0.8967 -0.3130
vn -0.2748 0.9214 -0.2747
vn -0.2127 0.9537 -0.2127
usemtl Grass.006
s 1
f 38/46/38 39/47/39 40/48/40
f 41/49/41 39/50/39 42/51/42
f 43/52/43 44/53/44 42/54/42
f 45/55/45 46/56/46 44/53/44
f 45/55/45 47/57/47 48/58/48
f 47/57/47 49/59/49 50/60/50
f 49/59/49 51/61/51 52/62/52
f 51/61/51 53/63/53 54/64/54
f 53/63/53 55/65/55 56/66/56
f 55/65/55 57/67/57 58/68/58
f 59/69/59 60/70/60 57/71/57
f 60/70/60 61/72/61 62/73/62
f 63/74/63 64/75/64 61/72/61
f 65/76/65 66/77/66 64/75/64
f 67/78/67 68/79/68 66/77/66
f 69/80/69 70/81/70 68/79/68
f 71/82/71 72/83/72 69/80/69
f 73/84/73 71/82/71 67/78/67
f 67/78/67 71/82/71 69/80/69
f 67/78/67 69/80/69 68/79/68
f 74/85/74 73/84/73 65/76/65
f 65/76/65 73/84/73 67/78/67
f 65/76/65 67/78/67 66/77/66
f 63/74/63 74/85/74 65/76/65
f 63/74/63 65/76/65 64/75/64
f 60/70/60 63/74/63 61/72/61
f 59/69/59 74/85/74 63/74/63
f 60/70/60 59/69/59 63/74/63
f 60/70/60 62/73/62 57/86/57
f 55/65/55 59/69/59 57/87/57
f 55/65/55 58/68/58 56/66/56
f 59/69/59 55/65/55 74/85/74
f 55/65/55 53/63/53 74/85/74
f 53/63/53 56/66/56 54/64/54
f 74/85/74 53/63/53 73/84/73
f 53/63/53 51/61/51 73/84/73
f 51/61/51 54/64/54 52/62/52
f 73/84/73 51/61/51 71/82/71
f 51/61/51 49/59/49 71/82/71
f 49/59/49 52/62/52 50/60/50
f 71/82/71 49/59/49 72/83/72
f 49/59/49 47/57/47 72/83/72
f 47/57/47 50/60/50 48/58/48
f 45/55/45 48/58/48 46/56/46
f 47/57/47 45/55/45 43/52/43
f 72/83/72 47/57/47 43/52/43
f 43/52/43 45/55/45 44/53/44
f 44/88/44 46/89/46 41/49/41
f 41/49/41 42/51/42 44/88/44
f 41/49/41 40/90/40 39/50/39
f 43/52/43 42/54/42 39/47/39
f 72/83/72 43/52/43 38/46/38
f 69/80/69 72/83/72 38/46/38
f 69/80/69 38/46/38 70/81/70
f 38/46/38 43/52/43 39/47/39
f 38/46/38 40/48/40 70/81/70
o Grass.030_Grass.015
v 0.955652 -0.001085 -2.348638
v 1.123960 -0.110624 -2.755031
v -0.023890 -0.110624 -2.983310
v 2.976110 -0.110624 -2.983309
v 2.097325 -0.110623 -2.104734
v 1.786308 -0.001085 -1.793687
v 2.747717 -0.110623 -1.131434
v 2.341341 -0.001085 -0.963086
v 2.976109 -0.110623 0.016691
v 1.959018 0.188874 -0.804712
v 2.536204 -0.001069 0.016691
v 1.581338 0.391491 -0.648262
v 2.122022 0.189067 0.016691
v 1.198385 0.581212 -0.489627
v 1.713239 0.391673 0.016691
v 0.803703 0.739885 -0.326133
v 1.299077 0.581224 0.016690
v 0.395105 0.849030 -0.156875
v 0.871895 0.739886 0.016690
v -0.023891 0.889377 0.016690
v 0.429629 0.849030 0.016690
v 0.296782 0.849030 -0.304014
v 0.149633 0.849030 -0.402323
v -0.023891 0.739882 -0.879091
v -0.023891 0.849014 -0.436828
v 0.318851 0.739885 -0.810938
v -0.023890 0.581213 -1.306277
v 0.482306 0.581212 -1.205636
v -0.023890 0.391486 -1.720796
v 0.640903 0.391491 -1.588604
v -0.023890 0.188899 -2.129562
v 0.797316 0.188873 -1.966299
v -0.023890 -0.001023 -2.543294
v 1.204650 0.391491 -1.211971
v 1.493701 0.188873 -1.501052
v 0.911562 0.581212 -0.918855
v 0.609497 0.739885 -0.616760
vt 0.019792 -0.045963
vt 0.019792 -0.500000
vt -0.499860 -0.500000
vt -0.500000 1.500000
vt -0.347817 0.265228
vt 0.085716 0.914144
vt 0.500010 -0.045963
vt 0.980224 -0.500000
vt 0.500010 -0.500000
vt 0.980224 -0.045963
vt 1.500000 -0.500000
vt 0.980224 0.266717
vt 1.500000 -0.045963
vt 0.980224 0.535715
vt 1.500000 0.266717
vt 0.980224 0.785264
vt 1.500000 0.535715
vt 0.980224 1.026356
vt 1.500000 0.785264
vt 0.980224 1.264124
vt 1.500000 1.026356
vt 0.980224 1.500000
vt 1.500000 1.264124
vt 0.500010 1.264124
vt 0.019792 1.264124
vt 0.019792 1.500000
vt -0.499860 1.026356
vt -0.499860 1.264124
vt 0.019792 1.026356
vt -0.499860 0.785264
vt 0.019792 0.785264
vt -0.499860 0.535715
vt 0.019792 0.535715
vt -0.499860 0.266717
vt 0.019792 0.266717
vt -0.499860 -0.045963
vt 0.500010 0.535715
vt 0.500010 0.266717
vt 0.500010 0.785264
vt 0.500010 1.026356
vt -0.499860 1.500000
vt 0.500010 1.500000
vt 0.734589 1.347741
vt 1.500000 1.500000
vt -0.500000 -0.500000
vn 0.1425 0.9281 -0.3441
vn -0.0003 1.0000 0.0007
vn -0.0000 1.0000 0.0007
vn -0.0000 1.0000 -0.0000
vn -0.0005 1.0000 0.0005
vn 0.2633 0.9281 -0.2634
vn -0.0007 1.0000 0.0003
vn 0.3441 0.9281 -0.1425
vn -0.0007 1.0000 -0.0000
vn 0.4089 0.8967 -0.1694
vn 0.3724 0.9281 0.0000
vn 0.4039 0.8994 -0.1673
vn 0.4426 0.8967 0.0000
vn 0.3590 0.9214 -0.1487
vn 0.4372 0.8994 0.0000
vn 0.2779 0.9537 -0.1151
vn 0.3886 0.9214 0.0000
vn 0.1579 0.9853 -0.0654
vn 0.3008 0.9537 -0.0000
vn -0.0002 1.0000 0.0005
vn 0.1709 0.9853 -0.0000
vn 0.1208 0.9853 -0.1208
vn 0.0654 0.9853 -0.1579
vn 0.0000 0.9537 -0.3008
vn 0.0000 0.9853 -0.1709
vn 0.1151 0.9537 -0.2779
vn 0.0000 0.9214 -0.3886
vn 0.1487 0.9214 -0.3590
vn 0.0000 0.8994 -0.4372
vn 0.1673 0.8994 -0.4039
vn 0.0000 0.8967 -0.4426
vn 0.1693 0.8967 -0.4089
vn 0.0000 0.9281 -0.3724
vn 0.3091 0.8994 -0.3091
vn 0.3130 0.8967 -0.3130
vn 0.2747 0.9214 -0.2748
vn 0.2127 0.9537 -0.2127
usemtl Grass.006
s 1
f 75/91/75 76/92/76 77/93/77
f 78/94/78 76/95/76 79/96/79
f 80/97/80 81/98/81 79/99/79
f 82/100/82 83/101/83 81/98/81
f 82/100/82 84/102/84 85/103/85
f 84/102/84 86/104/86 87/105/87
f 86/104/86 88/106/88 89/107/89
f 88/106/88 90/108/90 91/109/91
f 90/108/90 92/110/92 93/111/93
f 92/110/92 94/112/94 95/113/95
f 96/114/96 97/115/97 94/116/94
f 97/115/97 98/117/98 99/118/99
f 100/119/100 101/120/101 98/117/98
f 102/121/102 103/122/103 101/120/101
f 104/123/104 105/124/105 103/122/103
f 106/125/106 107/126/107 105/124/105
f 108/127/108 109/128/109 106/125/106
f 110/129/110 108/127/108 104/123/104
f 104/123/104 108/127/108 106/125/106
f 104/123/104 106/125/106 105/124/105
f 111/130/111 110/129/110 102/121/102
f 102/121/102 110/129/110 104/123/104
f 102/121/102 104/123/104 103/122/103
f 100/119/100 111/130/111 102/121/102
f 100/119/100 102/121/102 101/120/101
f 97/115/97 100/119/100 98/117/98
f 96/114/96 111/130/111 100/119/100
f 97/115/97 96/114/96 100/119/100
f 97/115/97 99/118/99 94/131/94
f 92/110/92 96/114/96 94/132/94
f 92/110/92 95/113/95 93/111/93
f 96/114/96 92/110/92 111/130/111
f 92/110/92 90/108/90 111/130/111
f 90/108/90 93/111/93 91/109/91
f 111/130/111 90/108/90 110/129/110
f 90/108/90 88/106/88 110/129/110
f 88/106/88 91/109/91 89/107/89
f 110/129/110 88/106/88 108/127/108
f 88/106/88 86/104/86 108/127/108
f 86/104/86 89/107/89 87/105/87
f 108/127/108 86/104/86 109/128/109
f 86/104/86 84/102/84 109/128/109
f 84/102/84 87/105/87 85/103/85
f 82/100/82 85/103/85 83/101/83
f 84/102/84 82/100/82 80/97/80
f 109/128/109 84/102/84 80/97/80
f 80/97/80 82/100/82 81/98/81
f 81/133/81 83/134/83 78/94/78
f 78/94/78 79/96/79 81/133/81
f 78/94/78 77/135/77 76/95/76
f 80/97/80 79/99/79 76/92/76
f 109/128/109 80/97/80 75/91/75
f 106/125/106 109/128/109 75/91/75
f 106/125/106 75/91/75 107/126/107
f 75/91/75 80/97/80 76/92/76
f 75/91/75 77/93/77 107/126/107
o Grass.039_Grass.015
v 2.341438 -0.001085 0.996233
v 2.747831 -0.110624 1.164541
v 2.976110 -0.110624 0.016691
v 2.976110 -0.110624 3.016691
v 2.097535 -0.110623 2.137906
v 1.786487 -0.001085 1.826889
v 1.124234 -0.110623 2.788299
v 0.955886 -0.001085 2.381922
v -0.023891 -0.110623 3.016691
v 0.797512 0.188874 1.999599
v -0.023890 -0.001069 2.576786
v 0.641062 0.391491 1.621920
v -0.023890 0.189067 2.162603
v 0.482427 0.581212 1.238967
v -0.023890 0.391673 1.753821
v 0.318933 0.739885 0.844285
v -0.023890 0.581224 1.339659
v 0.149675 0.849030 0.435687
v -0.023890 0.739886 0.912477
v -0.023890 0.889377 0.016691
v -0.023890 0.849030 0.470211
v 0.296814 0.849030 0.337363
v 0.395123 0.849030 0.190215
v 0.871891 0.739882 0.016691
v 0.429628 0.849014 0.016691
v 0.803738 0.739885 0.359433
v 1.299077 0.581213 0.016691
v 1.198436 0.581212 0.522887
v 1.713596 0.391486 0.016691
v 1.581404 0.391491 0.681484
v 2.122362 0.188899 0.016691
v 1.959099 0.188873 0.837897
v 2.536095 -0.001023 0.016691
v 1.204772 0.391491 1.245231
v 1.493852 0.188873 1.534283
v 0.911655 0.581212 0.952143
v 0.609560 0.739885 0.650079
vt 0.019792 -0.045963
vt 0.019792 -0.500000
vt -0.499860 -0.500000
vt -0.500000 1.500000
vt -0.347817 0.265228
vt 0.085716 0.914144
vt 0.500010 -0.045963
vt 0.980224 -0.500000
vt 0.500010 -0.500000
vt 0.980224 -0.045963
vt 1.500000 -0.500000
vt 0.980224 0.266717
vt 1.500000 -0.045963
vt 0.980224 0.535715
vt 1.500000 0.266717
vt 0.980224 0.785264
vt 1.500000 0.535715
vt 0.980224 1.026356
vt 1.500000 0.785264
vt 0.980224 1.264124
vt 1.500000 1.026356
vt 0.980224 1.500000
vt 1.500000 1.264124
vt 0.500010 1.264124
vt 0.019792 1.264124
vt 0.019792 1.500000
vt -0.499860 1.026356
vt -0.499860 1.264124
vt 0.019792 1.026356
vt -0.499860 0.785264
vt 0.019792 0.785264
vt -0.499860 0.535715
vt 0.019792 0.535715
vt -0.499860 0.266717
vt 0.019792 0.266717
vt -0.499860 -0.045963
vt 0.500010 0.535715
vt 0.500010 0.266717
vt 0.500010 0.785264
vt 0.500010 1.026356
vt -0.499860 1.500000
vt 0.500010 1.500000
vt 0.734589 1.347741
vt 1.500000 1.500000
vt -0.500000 -0.500000
vn 0.3441 0.9281 0.1425
vn -0.0007 1.0000 -0.0003
vn -0.0007 1.0000 -0.0000
vn 0.0000 1.0000 0.0000
vn -0.0005 1.0000 -0.0005
vn 0.2634 0.9281 0.2633
vn -0.0003 1.0000 -0.0007
vn 0.1425 0.9281 0.3441
vn 0.0000 1.0000 -0.0007
vn 0.1694 0.8967 0.4089
vn -0.0000 0.9281 0.3724
vn 0.1673 0.8994 0.4039
vn -0.0000 0.8967 0.4426
vn 0.1487 0.9214 0.3590
vn -0.0000 0.8994 0.4372
vn 0.1151 0.9537 0.2779
vn -0.0000 0.9214 0.3886
vn 0.0654 0.9853 0.1579
vn 0.0000 0.9537 0.3008
vn -0.0005 1.0000 -0.0002
vn 0.0000 0.9853 0.1709
vn 0.1208 0.9853 0.1208
vn 0.1579 0.9853 0.0654
vn 0.3008 0.9537 0.0000
vn 0.1709 0.9853 0.0000
vn 0.2779 0.9537 0.1151
vn 0.3886 0.9214 0.0000
vn 0.3590 0.9214 0.1487
vn 0.4372 0.8994 0.0000
vn 0.4039 0.8994 0.1673
vn 0.4426 0.8967 0.0000
vn 0.4089 0.8967 0.1693
vn 0.3724 0.9281 0.0000
vn 0.3091 0.8994 0.3091
vn 0.3130 0.8967 0.3130
vn 0.2748 0.9214 0.2747
vn 0.2127 0.9537 0.2127
usemtl Grass.006
s 1
f 112/136/112 113/137/113 114/138/114
f 115/139/115 113/140/113 116/141/116
f 117/142/117 118/143/118 116/144/116
f 119/145/119 120/146/120 118/143/118
f 119/145/119 121/147/121 122/148/122
f 121/147/121 123/149/123 124/150/124
f 123/149/123 125/151/125 126/152/126
f 125/151/125 127/153/127 128/154/128
f 127/153/127 129/155/129 130/156/130
f 129/155/129 131/157/131 132/158/132
f 133/159/133 134/160/134 131/161/131
f 134/160/134 135/162/135 136/163/136
f 137/164/137 138/165/138 135/162/135
f 139/166/139 140/167/140 138/165/138
f 141/168/141 142/169/142 140/167/140
f 143/170/143 144/171/144 142/169/142
f 145/172/145 146/173/146 143/170/143
f 147/174/147 145/172/145 141/168/141
f 141/168/141 145/172/145 143/170/143
f 141/168/141 143/170/143 142/169/142
f 148/175/148 147/174/147 139/166/139
f 139/166/139 147/174/147 141/168/141
f 139/166/139 141/168/141 140/167/140
f 137/164/137 148/175/148 139/166/139
f 137/164/137 139/166/139 138/165/138
f 134/160/134 137/164/137 135/162/135
f 133/159/133 148/175/148 137/164/137
f 134/160/134 133/159/133 137/164/137
f 134/160/134 136/163/136 131/176/131
f 129/155/129 133/159/133 131/177/131
f 129/155/129 132/158/132 130/156/130
f 133/159/133 129/155/129 148/175/148
f 129/155/129 127/153/127 148/175/148
f 127/153/127 130/156/130 128/154/128
f 148/175/148 127/153/127 147/174/147
f 127/153/127 125/151/125 147/174/147
f 125/151/125 128/154/128 126/152/126
f 147/174/147 125/151/125 145/172/145
f 125/151/125 123/149/123 145/172/145
f 123/149/123 126/152/126 124/150/124
f 145/172/145 123/149/123 146/173/146
f 123/149/123 121/147/121 146/173/146
f 121/147/121 124/150/124 122/148/122
f 119/145/119 122/148/122 120/146/120
f 121/147/121 119/145/119 117/142/117
f 146/173/146 121/147/121 117/142/117
f 117/142/117 119/145/119 118/143/118
f 118/178/118 120/179/120 115/139/115
f 115/139/115 116/141/116 118/178/118
f 115/139/115 114/180/114 113/140/113
f 117/142/117 116/144/116 113/137/113
f 146/173/146 117/142/117 112/136/112
f 143/170/143 146/173/146 112/136/112
f 143/170/143 112/136/112 144/171/144
f 112/136/112 117/142/117 113/137/113
f 112/136/112 114/138/114 144/171/144
