# Blender v2.91.2 OBJ File: 'WonderLand2.blend'
# www.blender.org
mtllib HtoW.mtl
o Cube_Cube.015
v 6.674498 -12.449380 -34.799885
v 6.674498 4.550620 -34.799885
v 6.674498 -12.449380 -38.699886
v 6.674498 4.550620 -38.699886
v 10.574497 -12.449380 -34.799885
v 10.574497 4.550620 -34.799885
v 10.574497 -12.449380 -38.699886
v 10.574497 4.550620 -38.699886
vt 5.506500 -0.450000
vt -4.506500 1.450000
vt -4.506500 -0.450000
vt 5.506500 -0.450000
vt -4.506500 1.450000
vt -4.506500 -0.450000
vt 5.506500 -0.450000
vt -4.506500 1.450000
vt -4.506500 -0.450000
vt 5.506500 -0.450000
vt -4.506500 1.450000
vt -4.506500 -0.450000
vt 5.506500 -0.450000
vt 1.619705 -0.619705
vt -0.619705 1.619705
vt -0.619705 -0.619705
vt 5.506500 1.450000
vt 5.506500 1.450000
vt 5.506500 1.450000
vt 5.506500 1.450000
vt 5.506500 1.450000
vt 1.619705 1.619705
vn -1.0000 0.0000 0.0000
vn 0.0000 0.0000 -1.0000
vn 1.0000 0.0000 0.0000
vn 0.0000 0.0000 1.0000
vn 0.0000 -1.0000 0.0000
vn 0.0000 1.0000 0.0000
usemtl Material.021
s off
f 2/1/1 3/2/1 1/3/1
f 4/4/2 7/5/2 3/6/2
f 8/7/3 5/8/3 7/9/3
f 6/10/4 1/11/4 5/12/4
f 7/13/5 1/11/5 3/6/5
f 4/14/6 6/15/6 8/16/6
f 2/1/1 4/17/1 3/2/1
f 4/4/2 8/18/2 7/5/2
f 8/7/3 6/19/3 5/8/3
f 6/10/4 2/20/4 1/11/4
f 7/13/5 5/21/5 1/11/5
f 4/14/6 2/22/6 6/15/6
o Cube.001_Cube.015
v -0.666362 -11.949484 -35.483295
v -0.666362 5.050516 -35.483295
v -0.666362 -11.949484 -38.083294
v -0.666362 5.050516 -38.083294
v 1.933638 -11.949484 -35.483295
v 1.933638 5.050516 -35.483295
v 1.933638 -11.949484 -38.083294
v 1.933638 5.050516 -38.083294
vt 5.506500 -0.450000
vt -4.506500 1.450000
vt -4.506500 -0.450000
vt 5.506500 -0.450000
vt -4.506500 1.450000
vt -4.506500 -0.450000
vt 5.506500 -0.450000
vt -4.506500 1.450000
vt -4.506500 -0.450000
vt 5.506500 -0.450000
vt -4.506500 1.450000
vt -4.506500 -0.450000
vt 5.506500 -0.450000
vt 1.619705 -0.619705
vt -0.619705 1.619705
vt -0.619705 -0.619705
vt 5.506500 1.450000
vt 5.506500 1.450000
vt 5.506500 1.450000
vt 5.506500 1.450000
vt 5.506500 1.450000
vt 1.619705 1.619705
vn -1.0000 0.0000 0.0000
vn 0.0000 0.0000 -1.0000
vn 1.0000 0.0000 0.0000
vn 0.0000 0.0000 1.0000
vn 0.0000 -1.0000 0.0000
vn 0.0000 1.0000 0.0000
usemtl Material.021
s off
f 10/23/7 11/24/7 9/25/7
f 12/26/8 15/27/8 11/28/8
f 16/29/9 13/30/9 15/31/9
f 14/32/10 9/33/10 13/34/10
f 15/35/11 9/33/11 11/28/11
f 12/36/12 14/37/12 16/38/12
f 10/23/7 12/39/7 11/24/7
f 12/26/8 16/40/8 15/27/8
f 16/29/9 14/41/9 13/30/9
f 14/32/10 10/42/10 9/33/10
f 15/35/11 13/43/11 9/33/11
f 12/36/12 10/44/12 14/37/12
o Cube.002_Cube.015
v -0.733181 -12.449380 -43.483295
v -0.733181 4.550620 -43.483295
v -0.733181 -12.449380 -46.083294
v -0.733181 4.550620 -46.083294
v 1.866819 -12.449380 -43.483295
v 1.866819 4.550620 -43.483295
v 1.866819 -12.449380 -46.083294
v 1.866819 4.550620 -46.083294
vt 5.506500 -0.450000
vt -4.506500 1.450000
vt -4.506500 -0.450000
vt 5.506500 -0.450000
vt -4.506500 1.450000
vt -4.506500 -0.450000
vt 5.506500 -0.450000
vt -4.506500 1.450000
vt -4.506500 -0.450000
vt 5.506500 -0.450000
vt -4.506500 1.450000
vt -4.506500 -0.450000
vt 5.506500 -0.450000
vt 1.619705 -0.619705
vt -0.619705 1.619705
vt -0.619705 -0.619705
vt 5.506500 1.450000
vt 5.506500 1.450000
vt 5.506500 1.450000
vt 5.506500 1.450000
vt 5.506500 1.450000
vt 1.619705 1.619705
vn -1.0000 0.0000 0.0000
vn 0.0000 0.0000 -1.0000
vn 1.0000 0.0000 0.0000
vn 0.0000 0.0000 1.0000
vn 0.0000 -1.0000 0.0000
vn 0.0000 1.0000 0.0000
usemtl Material.021
s off
f 18/45/13 19/46/13 17/47/13
f 20/48/14 23/49/14 19/50/14
f 24/51/15 21/52/15 23/53/15
f 22/54/16 17/55/16 21/56/16
f 23/57/17 17/55/17 19/50/17
f 20/58/18 22/59/18 24/60/18
f 18/45/13 20/61/13 19/46/13
f 20/48/14 24/62/14 23/49/14
f 24/51/15 22/63/15 21/52/15
f 22/54/16 18/64/16 17/55/16
f 23/57/17 21/65/17 17/55/17
f 20/58/18 18/66/18 22/59/18
o Cube.003_Cube.015
v -11.387305 -12.449380 -41.752308
v -11.387305 4.550620 -41.752308
v -12.825641 -12.449380 -45.377388
v -12.825641 4.550620 -45.377388
v -7.762227 -12.449380 -43.190643
v -7.762227 4.550620 -43.190643
v -9.200562 -12.449380 -46.815723
v -9.200562 4.550620 -46.815723
vt 5.506500 -0.450000
vt -4.506500 1.450000
vt -4.506500 -0.450000
vt 5.506500 -0.450000
vt -4.506500 1.450000
vt -4.506500 -0.450000
vt 5.506500 -0.450000
vt -4.506500 1.450000
vt -4.506500 -0.450000
vt 5.506500 -0.450000
vt -4.506500 1.450000
vt -4.506500 -0.450000
vt 5.506500 -0.450000
vt 1.619705 -0.619705
vt -0.619705 1.619705
vt -0.619705 -0.619705
vt 5.506500 1.450000
vt 5.506500 1.450000
vt 5.506500 1.450000
vt 5.506500 1.450000
vt 5.506500 1.450000
vt 1.619705 1.619705
vn -0.9295 0.0000 0.3688
vn -0.3688 0.0000 -0.9295
vn 0.9295 0.0000 -0.3688
vn 0.3688 0.0000 0.9295
vn 0.0000 -1.0000 0.0000
vn 0.0000 1.0000 -0.0000
usemtl Material.021
s off
f 26/67/19 27/68/19 25/69/19
f 28/70/20 31/71/20 27/72/20
f 32/73/21 29/74/21 31/75/21
f 30/76/22 25/77/22 29/78/22
f 31/79/23 25/77/23 27/72/23
f 28/80/24 30/81/24 32/82/24
f 26/67/19 28/83/19 27/68/19
f 28/70/20 32/84/20 31/71/20
f 32/73/21 30/85/21 29/74/21
f 30/76/22 26/86/22 25/77/22
f 31/79/23 29/87/23 25/77/23
f 28/80/24 26/88/24 30/81/24
o Cube.004_Cube.015
v -14.091509 -12.449380 -47.619171
v -14.091509 4.550620 -47.619171
v -16.849224 -12.449380 -50.376888
v -16.849224 4.550620 -50.376888
v -11.333793 -12.449380 -50.376888
v -11.333793 4.550620 -50.376888
v -14.091509 -12.449380 -53.134605
v -14.091509 4.550620 -53.134605
vt 5.506500 -0.450000
vt -4.506500 1.450000
vt -4.506500 -0.450000
vt 5.506500 -0.450000
vt -4.506500 1.450000
vt -4.506500 -0.450000
vt 5.506500 -0.450000
vt -4.506500 1.450000
vt -4.506500 -0.450000
vt 5.506500 -0.450000
vt -4.506500 1.450000
vt -4.506500 -0.450000
vt 5.506500 -0.450000
vt 1.619705 -0.619705
vt -0.619705 1.619705
vt -0.619705 -0.619705
vt 5.506500 1.450000
vt 5.506500 1.450000
vt 5.506500 1.450000
vt 5.506500 1.450000
vt 5.506500 1.450000
vt 1.619705 1.619705
vn -0.7071 0.0000 0.7071
vn -0.7071 0.0000 -0.7071
vn 0.7071 0.0000 -0.7071
vn 0.7071 0.0000 0.7071
vn 0.0000 -1.0000 0.0000
vn 0.0000 1.0000 0.0000
usemtl Material.021
s off
f 34/89/25 35/90/25 33/91/25
f 36/92/26 39/93/26 35/94/26
f 40/95/27 37/96/27 39/97/27
f 38/98/28 33/99/28 37/100/28
f 39/101/29 33/99/29 35/94/29
f 36/102/30 38/103/30 40/104/30
f 34/89/25 36/105/25 35/90/25
f 36/92/26 40/106/26 39/93/26
f 40/95/27 38/107/27 37/96/27
f 38/98/28 34/108/28 33/99/28
f 39/101/29 37/109/29 33/99/29
f 36/102/30 34/110/30 38/103/30
o Cube.005_Cube.015
v -0.988147 -14.969380 -57.468357
v -0.988147 2.030620 -57.468357
v -0.988147 -14.969380 -61.368359
v -0.988147 2.030620 -61.368359
v 2.911853 -14.969380 -57.468357
v 2.911853 2.030620 -57.468357
v 2.911853 -14.969380 -61.368359
v 2.911853 2.030620 -61.368359
vt 5.506500 -0.450000
vt -4.506500 1.450000
vt -4.506500 -0.450000
vt 5.506500 -0.450000
vt -4.506500 1.450000
vt -4.506500 -0.450000
vt 5.506500 -0.450000
vt -4.506500 1.450000
vt -4.506500 -0.450000
vt 5.506500 -0.450000
vt -4.506500 1.450000
vt -4.506500 -0.450000
vt 5.506500 -0.450000
vt 1.619705 -0.619705
vt -0.619705 1.619705
vt -0.619705 -0.619705
vt 5.506500 1.450000
vt 5.506500 1.450000
vt 5.506500 1.450000
vt 5.506500 1.450000
vt 5.506500 1.450000
vt 1.619705 1.619705
vn -1.0000 0.0000 0.0000
vn 0.0000 0.0000 -1.0000
vn 1.0000 0.0000 0.0000
vn 0.0000 0.0000 1.0000
vn 0.0000 -1.0000 0.0000
vn 0.0000 1.0000 0.0000
usemtl Material.021
s off
f 42/111/31 43/112/31 41/113/31
f 44/114/32 47/115/32 43/116/32
f 48/117/33 45/118/33 47/119/33
f 46/120/34 41/121/34 45/122/34
f 47/123/35 41/121/35 43/116/35
f 44/124/36 46/125/36 48/126/36
f 42/111/31 44/127/31 43/112/31
f 44/114/32 48/128/32 47/115/32
f 48/117/33 46/129/33 45/118/33
f 46/120/34 42/130/34 41/121/34
f 47/123/35 45/131/35 41/121/35
f 44/124/36 42/132/36 46/125/36
o Cube.006_Cube.015
v 8.340703 -12.449380 -60.354939
v 8.340703 4.550620 -60.354939
v 8.340703 -12.449380 -64.254936
v 8.340703 4.550620 -64.254936
v 12.240703 -12.449380 -60.354939
v 12.240703 4.550620 -60.354939
v 12.240703 -12.449380 -64.254936
v 12.240703 4.550620 -64.254936
vt 5.506500 -0.450000
vt -4.506500 1.450000
vt -4.506500 -0.450000
vt 5.506500 -0.450000
vt -4.506500 1.450000
vt -4.506500 -0.450000
vt 5.506500 -0.450000
vt -4.506500 1.450000
vt -4.506500 -0.450000
vt 5.506500 -0.450000
vt -4.506500 1.450000
vt -4.506500 -0.450000
vt 5.506500 -0.450000
vt 1.619705 -0.619705
vt -0.619705 1.619705
vt -0.619705 -0.619705
vt 5.506500 1.450000
vt 5.506500 1.450000
vt 5.506500 1.450000
vt 5.506500 1.450000
vt 5.506500 1.450000
vt 1.619705 1.619705
vn -1.0000 0.0000 0.0000
vn 0.0000 0.0000 -1.0000
vn 1.0000 0.0000 0.0000
vn 0.0000 0.0000 1.0000
vn 0.0000 -1.0000 0.0000
vn 0.0000 1.0000 0.0000
usemtl Material.021
s off
f 50/133/37 51/134/37 49/135/37
f 52/136/38 55/137/38 51/138/38
f 56/139/39 53/140/39 55/141/39
f 54/142/40 49/143/40 53/144/40
f 55/145/41 49/143/41 51/138/41
f 52/146/42 54/147/42 56/148/42
f 50/133/37 52/149/37 51/134/37
f 52/136/38 56/150/38 55/137/38
f 56/139/39 54/151/39 53/140/39
f 54/142/40 50/152/40 49/143/40
f 55/145/41 53/153/41 49/143/41
f 52/146/42 50/154/42 54/147/42
o Cube.007_Cube.015
v 6.096266 -13.959982 -54.339306
v 6.096266 3.040018 -54.339306
v 6.096266 -13.959982 -58.239307
v 6.096266 3.040018 -58.239307
v 9.996265 -13.959982 -54.339306
v 9.996265 3.040018 -54.339306
v 9.996265 -13.959982 -58.239307
v 9.996265 3.040018 -58.239307
vt 5.506500 -0.450000
vt -4.506500 1.450000
vt -4.506500 -0.450000
vt 5.506500 -0.450000
vt -4.506500 1.450000
vt -4.506500 -0.450000
vt 5.506500 -0.450000
vt -4.506500 1.450000
vt -4.506500 -0.450000
vt 5.506500 -0.450000
vt -4.506500 1.450000
vt -4.506500 -0.450000
vt 5.506500 -0.450000
vt 1.619705 -0.619705
vt -0.619705 1.619705
vt -0.619705 -0.619705
vt 5.506500 1.450000
vt 5.506500 1.450000
vt 5.506500 1.450000
vt 5.506500 1.450000
vt 5.506500 1.450000
vt 1.619705 1.619705
vn -1.0000 0.0000 0.0000
vn 0.0000 0.0000 -1.0000
vn 1.0000 0.0000 0.0000
vn 0.0000 0.0000 1.0000
vn 0.0000 -1.0000 0.0000
vn 0.0000 1.0000 0.0000
usemtl Material.021
s off
f 58/155/43 59/156/43 57/157/43
f 60/158/44 63/159/44 59/160/44
f 64/161/45 61/162/45 63/163/45
f 62/164/46 57/165/46 61/166/46
f 63/167/47 57/165/47 59/160/47
f 60/168/48 62/169/48 64/170/48
f 58/155/43 60/171/43 59/156/43
f 60/158/44 64/172/44 63/159/44
f 64/161/45 62/173/45 61/162/45
f 62/164/46 58/174/46 57/165/46
f 63/167/47 61/175/47 57/165/47
f 60/168/48 58/176/48 62/169/48
o Cube.009_Cube.015
v 6.936717 -10.449380 -65.055702
v 6.936717 6.550620 -65.055702
v 4.179000 -10.449380 -67.813416
v 4.179000 6.550620 -67.813416
v 9.694433 -10.449380 -67.813416
v 9.694433 6.550620 -67.813416
v 6.936717 -10.449380 -70.571129
v 6.936717 6.550620 -70.571129
vt 5.506500 -0.450000
vt -4.506500 1.450000
vt -4.506500 -0.450000
vt 5.506500 -0.450000
vt -4.506500 1.450000
vt -4.506500 -0.450000
vt 5.506500 -0.450000
vt -4.506500 1.450000
vt -4.506500 -0.450000
vt 5.506500 -0.450000
vt -4.506500 1.450000
vt -4.506500 -0.450000
vt 5.506500 -0.450000
vt 1.619705 -0.619705
vt -0.619705 1.619705
vt -0.619705 -0.619705
vt 5.506500 1.450000
vt 5.506500 1.450000
vt 5.506500 1.450000
vt 5.506500 1.450000
vt 5.506500 1.450000
vt 1.619705 1.619705
vn -0.7071 0.0000 0.7071
vn -0.7071 0.0000 -0.7071
vn 0.7071 0.0000 -0.7071
vn 0.7071 0.0000 0.7071
vn 0.0000 -1.0000 0.0000
vn 0.0000 1.0000 0.0000
usemtl Material.021
s off
f 66/177/49 67/178/49 65/179/49
f 68/180/50 71/181/50 67/182/50
f 72/183/51 69/184/51 71/185/51
f 70/186/52 65/187/52 69/188/52
f 71/189/53 65/187/53 67/182/53
f 68/190/54 70/191/54 72/192/54
f 66/177/49 68/193/49 67/178/49
f 68/180/50 72/194/50 71/181/50
f 72/183/51 70/195/51 69/184/51
f 70/186/52 66/196/52 65/187/52
f 71/189/53 69/197/53 65/187/53
f 68/190/54 66/198/54 70/191/54
o Cube.010_Cube.015
v -2.376890 -12.449380 -69.356606
v -2.376890 4.550620 -69.356606
v -2.376890 -12.449380 -75.206612
v -2.376890 4.550620 -75.206612
v 3.473110 -12.449380 -69.356606
v 3.473110 4.550620 -69.356606
v 3.473110 -12.449380 -75.206612
v 3.473110 4.550620 -75.206612
vt 5.506500 -0.450000
vt -4.506500 1.450000
vt -4.506500 -0.450000
vt 5.506500 -0.450000
vt -4.506500 1.450000
vt -4.506500 -0.450000
vt 5.506500 -0.450000
vt -4.506500 1.450000
vt -4.506500 -0.450000
vt 5.506500 -0.450000
vt -4.506500 1.450000
vt -4.506500 -0.450000
vt 5.506500 -0.450000
vt 1.619705 -0.619705
vt -0.619705 1.619705
vt -0.619705 -0.619705
vt 5.506500 1.450000
vt 5.506500 1.450000
vt 5.506500 1.450000
vt 5.506500 1.450000
vt 5.506500 1.450000
vt 1.619705 1.619705
vn -1.0000 0.0000 0.0000
vn 0.0000 0.0000 -1.0000
vn 1.0000 0.0000 0.0000
vn 0.0000 0.0000 1.0000
vn 0.0000 -1.0000 0.0000
vn 0.0000 1.0000 0.0000
usemtl Material.021
s off
f 74/199/55 75/200/55 73/201/55
f 76/202/56 79/203/56 75/204/56
f 80/205/57 77/206/57 79/207/57
f 78/208/58 73/209/58 77/210/58
f 79/211/59 73/209/59 75/204/59
f 76/212/60 78/213/60 80/214/60
f 74/199/55 76/215/55 75/200/55
f 76/202/56 80/216/56 79/203/56
f 80/205/57 78/217/57 77/206/57
f 78/208/58 74/218/58 73/209/58
f 79/211/59 77/219/59 73/209/59
f 76/212/60 74/220/60 78/213/60
