# Blender v2.90.1 OBJ File: 'test.blend'
# www.blender.org
mtllib player2.mtl
o Cube
v -1.000000 -1.000000 -1.000000
v -1.000000 1.000000 -1.000000
v -1.000000 -1.000000 1.000000
v -1.000000 1.000000 1.000000
v 1.000000 -1.000000 -1.000000
v 1.000000 1.000000 -1.000000
v 1.000000 -1.000000 1.000000
v 1.000000 1.000000 1.000000
vt 0.470962 0.383847
vt 0.470962 0.441923
vt 0.529038 0.441923
vt 0.529038 0.383847
vt 0.470962 0.500000
vt 0.529038 0.500000
vt 0.470962 0.558077
vt 0.529038 0.558077
vt 0.470962 0.616153
vt 0.529038 0.616153
vt 0.412885 0.500000
vt 0.412885 0.558077
vt 0.587115 0.558077
vt 0.587115 0.500000
vn -1.0000 0.0000 0.0000
vn 0.0000 0.0000 1.0000
vn 1.0000 0.0000 0.0000
vn 0.0000 0.0000 -1.0000
vn 0.0000 -1.0000 0.0000
vn 0.0000 1.0000 0.0000
usemtl Material.001
s off
f 1/1/1 3/2/1 4/3/1 2/4/1
f 3/2/2 7/5/2 8/6/2 4/3/2
f 7/5/3 5/7/3 6/8/3 8/6/3
f 5/7/4 1/9/4 2/10/4 6/8/4
f 3/11/5 1/12/5 5/7/5 7/5/5
f 8/6/6 6/8/6 2/13/6 4/14/6
