# Blender v2.91.2 OBJ File: 'test.blend'
# www.blender.org
mtllib pokerBlock.mtl
o Cube.008_Cube.015
v -1.000000 1.000000 1.000000
v -1.000000 -1.000000 -1.000000
v -1.000000 -1.000000 1.000000
v -1.000000 1.000000 -1.000000
v 1.000000 -1.000000 -1.000000
v 1.000000 1.000000 -1.000000
v 1.000000 -1.000000 1.000000
v 1.000000 1.000000 1.000000
vt 1.516384 -0.516384
vt 3.549151 -2.549151
vt 3.549151 -0.516384
vt -2.549151 -2.549151
vt -0.516384 -0.516384
vt -2.549151 -0.516384
vt -0.516384 -0.516383
vt -2.549151 1.516384
vt -2.549151 -0.516383
vt -0.516383 -2.549151
vt 1.516384 -0.516384
vt -0.516383 -0.516384
vt 1.516384 -0.516383
vt -0.516383 1.516384
vt -0.516383 -0.516383
vt -0.516384 1.516384
vt -2.549151 3.549151
vt -2.549151 1.516384
vt 1.516384 -2.549151
vt -0.516384 -2.549151
vt -0.516384 1.516384
vt 1.516384 -2.549151
vt 1.516384 1.516384
vt -0.516384 3.549151
vn -1.0000 -0.0000 0.0000
vn 0.0000 0.0000 -1.0000
vn 1.0000 -0.0000 0.0000
vn 0.0000 -0.0000 1.0000
vn 0.0000 -1.0000 -0.0000
vn 0.0000 1.0000 0.0000
usemtl Material.002
s 1
f 1/1/1 2/2/1 3/3/1
f 4/4/2 5/5/2 2/6/2
f 6/7/3 7/8/3 5/9/3
f 8/10/4 3/11/4 7/12/4
f 5/13/5 3/14/5 2/15/5
f 4/16/6 8/17/6 6/18/6
f 1/1/1 4/19/1 2/2/1
f 4/4/2 6/20/2 5/5/2
f 6/7/3 8/21/3 7/8/3
f 8/10/4 1/22/4 3/11/4
f 5/13/5 7/23/5 3/14/5
f 4/16/6 1/24/6 8/17/6
