# Blender v2.91.2 OBJ File: 'test.blend'
# www.blender.org
mtllib pyramid.mtl
o Cube.224_Cube.003
v -8.000000 -8.000000 8.000000
v 0.000000 8.000000 0.000000
v -8.000000 -8.000000 -8.000000
v 8.000000 -8.000000 8.000000
v 8.000000 -8.000000 -8.000000
vt 0.375000 -4.934787
vt 3.092393 -2.217394
vt 0.375000 -2.217394
vt 3.092393 0.500000
vt 0.375000 0.500000
vt 3.092393 3.217393
vt 0.375000 3.217393
vt 3.092393 5.934787
vt 0.375000 5.934787
vt -2.342393 3.217393
vt -2.342393 0.500000
vn -0.8944 0.4472 0.0000
vn 0.0000 0.4472 -0.8944
vn 0.8944 0.4472 0.0000
vn 0.0000 0.4472 0.8944
vn 0.0000 -1.0000 0.0000
usemtl Material.006
s off
f 1/1/1 2/2/1 3/3/1
f 3/3/2 2/4/2 5/5/2
f 5/5/3 2/6/3 4/7/3
f 4/7/4 2/8/4 1/9/4
f 5/5/5 1/10/5 3/11/5
f 5/5/5 4/7/5 1/10/5
