# Blender v2.91.2 OBJ File: 'WonderLand2.blend'
# www.blender.org
mtllib SandWorld_D.mtl
o Cube.226_Cube.005
v -149.392975 2.351969 -113.686653
v -149.392975 16.467430 -113.686653
v -151.072968 2.351969 -113.686653
v -150.805481 16.429703 -113.778206
v -149.392975 2.351969 -115.366646
v -149.392975 16.467430 -115.366646
v -151.072968 2.351969 -115.366646
v -151.072968 16.467430 -115.366646
vt -3.815188 -0.484861
vt 4.815188 1.484861
vt -3.815188 1.484861
vt 4.815188 -0.484861
vt -3.815188 1.484861
vt -3.815188 -0.484861
vt 4.815188 -0.484861
vt -3.815188 1.484861
vt -3.815188 -0.484861
vt 4.815188 -0.484861
vt -3.815188 1.484861
vt -3.815188 -0.484861
vt 4.815188 -0.484861
vt 1.750000 -0.750000
vt -0.750000 1.750000
vt -0.750000 -0.750000
vt 4.815188 -0.484861
vt 4.815188 1.484861
vt 4.815188 1.484861
vt 4.815188 1.484861
vt 4.815188 1.484861
vt 1.750000 1.750000
vn 0.0000 0.0065 1.0000
vn -0.9998 0.0190 0.0000
vn 0.0000 0.0000 -1.0000
vn 1.0000 0.0000 0.0000
vn 0.0000 -1.0000 0.0000
vn 0.0000 0.9997 0.0237
vn -0.0647 0.0000 0.9979
vn -0.9861 0.0000 0.1661
vn -0.0267 0.9996 0.0000
usemtl Material.008
s off
f 1/1/1 4/2/1 3/3/1
f 4/4/2 7/5/2 3/6/2
f 8/7/3 5/8/3 7/9/3
f 6/10/4 1/11/4 5/12/4
f 7/13/5 1/11/5 3/6/5
f 4/14/6 6/15/6 8/16/6
f 1/1/7 2/17/7 4/2/7
f 4/4/8 8/18/8 7/5/8
f 8/7/3 6/19/3 5/8/3
f 6/10/4 2/20/4 1/11/4
f 7/13/5 5/21/5 1/11/5
f 4/14/9 2/22/9 6/15/9
o Cube.227_Cube.005
v -149.940033 2.351969 -127.902710
v -149.940033 16.467430 -127.902710
v -151.620026 2.351969 -127.902710
v -151.352539 16.429703 -127.994263
v -149.940033 2.351969 -129.582703
v -149.940033 16.467430 -129.582703
v -151.620026 2.351969 -129.582703
v -151.620026 16.467430 -129.582703
vt -3.815188 -0.484861
vt 4.815188 1.484861
vt -3.815188 1.484861
vt 4.815188 -0.484861
vt -3.815188 1.484861
vt -3.815188 -0.484861
vt 4.815188 -0.484861
vt -3.815188 1.484861
vt -3.815188 -0.484861
vt 4.815188 -0.484861
vt -3.815188 1.484861
vt -3.815188 -0.484861
vt 4.815188 -0.484861
vt 1.750000 -0.750000
vt -0.750000 1.750000
vt -0.750000 -0.750000
vt 4.815188 -0.484861
vt 4.815188 1.484861
vt 4.815188 1.484861
vt 4.815188 1.484861
vt 4.815188 1.484861
vt 1.750000 1.750000
vn 0.0000 0.0065 1.0000
vn -0.9998 0.0190 0.0000
vn 0.0000 0.0000 -1.0000
vn 1.0000 0.0000 0.0000
vn 0.0000 -1.0000 0.0000
vn 0.0000 0.9997 0.0237
vn -0.0647 0.0000 0.9979
vn -0.9861 0.0000 0.1661
vn -0.0267 0.9996 0.0000
usemtl Material.008
s off
f 9/23/10 12/24/10 11/25/10
f 12/26/11 15/27/11 11/28/11
f 16/29/12 13/30/12 15/31/12
f 14/32/13 9/33/13 13/34/13
f 15/35/14 9/33/14 11/28/14
f 12/36/15 14/37/15 16/38/15
f 9/23/16 10/39/16 12/24/16
f 12/26/17 16/40/17 15/27/17
f 16/29/12 14/41/12 13/30/12
f 14/32/13 10/42/13 9/33/13
f 15/35/14 13/43/14 9/33/14
f 12/36/18 10/44/18 14/37/18
o Cube.401_Cube.022
v -151.952484 17.163347 -88.383270
v -151.952484 17.163349 -48.320282
v -151.952484 -3.473631 -88.383270
v -152.044037 -0.187735 -48.427361
v -153.632477 17.163347 -88.383270
v -153.632477 17.163349 -48.320282
v -153.632477 -3.473631 -88.383270
v -153.632477 -3.473629 -48.320282
vt -3.815188 -0.484861
vt 4.815188 1.484861
vt -3.815188 1.484861
vt 4.815188 -0.484861
vt -3.815188 1.484861
vt -3.815188 -0.484861
vt 4.815188 -0.484861
vt -3.815188 1.484861
vt -3.815188 -0.484861
vt 4.815188 -0.484861
vt -3.815188 1.484861
vt -3.815188 -0.484861
vt 4.815188 -0.484861
vt 1.750000 -0.750000
vt -0.750000 1.750000
vt -0.750000 -0.750000
vt 4.815188 -0.484861
vt 4.815188 1.484861
vt 4.815188 1.484861
vt 4.815188 1.484861
vt 4.815188 1.484861
vt 1.750000 1.750000
vn 1.0000 0.0000 0.0023
vn 0.0000 -0.9966 0.0820
vn -1.0000 0.0000 0.0000
vn 0.0000 1.0000 -0.0000
vn 0.0000 0.0000 -1.0000
vn 0.0673 0.0000 0.9977
vn 1.0000 -0.0053 0.0000
vn 0.9003 -0.4352 0.0000
vn 0.0000 -0.0062 1.0000
usemtl Material.029
s off
f 17/45/19 20/46/19 19/47/19
f 20/48/20 23/49/20 19/50/20
f 24/51/21 21/52/21 23/53/21
f 22/54/22 17/55/22 21/56/22
f 23/57/23 17/55/23 19/50/23
f 20/58/24 22/59/24 24/60/24
f 17/45/25 18/61/25 20/46/25
f 20/48/26 24/62/26 23/49/26
f 24/51/21 22/63/21 21/52/21
f 22/54/22 18/64/22 17/55/22
f 23/57/23 21/65/23 17/55/23
f 20/58/27 18/66/27 22/59/27
o Cube.566_Cube.023
v -140.723083 17.163347 -88.027344
v -140.723083 17.163349 -57.176544
v -140.723083 -3.473631 -88.027344
v -140.814636 -0.187735 -57.258999
v -142.403076 17.163347 -88.027344
v -142.403076 17.163349 -57.176544
v -142.403076 -3.473631 -88.027344
v -142.403076 -3.473629 -57.176544
vt -3.815188 -0.484861
vt 4.815188 1.484861
vt -3.815188 1.484861
vt 4.815188 -0.484861
vt -3.815188 1.484861
vt -3.815188 -0.484861
vt 4.815188 -0.484861
vt -3.815188 1.484861
vt -3.815188 -0.484861
vt 4.815188 -0.484861
vt -3.815188 1.484861
vt -3.815188 -0.484861
vt 4.815188 -0.484861
vt 1.750000 -0.750000
vt -0.750000 1.750000
vt -0.750000 -0.750000
vt 4.815188 -0.484861
vt 4.815188 1.484861
vt 4.815188 1.484861
vt 4.815188 1.484861
vt 4.815188 1.484861
vt 1.750000 1.750000
vn 1.0000 0.0000 0.0030
vn 0.0000 -0.9943 0.1062
vn -1.0000 0.0000 0.0000
vn 0.0000 1.0000 -0.0000
vn 0.0000 0.0000 -1.0000
vn 0.0518 0.0000 0.9987
vn 1.0000 -0.0053 0.0000
vn 0.9003 -0.4352 0.0000
vn 0.0000 -0.0048 1.0000
usemtl Material.030
s off
f 25/67/28 28/68/28 27/69/28
f 28/70/29 31/71/29 27/72/29
f 32/73/30 29/74/30 31/75/30
f 30/76/31 25/77/31 29/78/31
f 31/79/32 25/77/32 27/72/32
f 28/80/33 30/81/33 32/82/33
f 25/67/34 26/83/34 28/68/34
f 28/70/35 32/84/35 31/71/35
f 32/73/30 30/85/30 29/74/30
f 30/76/31 26/86/31 25/77/31
f 31/79/32 29/87/32 25/77/32
f 28/80/36 26/88/36 30/81/36
o Cube.568_Cube.025
v -153.717712 17.163347 -48.321411
v -113.654724 17.163349 -48.321407
v -153.717712 -3.473631 -48.321415
v -113.761803 -0.187735 -48.229855
v -153.717712 17.163347 -46.641411
v -113.654724 17.163349 -46.641407
v -153.717712 -3.473631 -46.641415
v -113.654724 -3.473629 -46.641411
vt -3.815188 -0.484861
vt 4.815188 1.484861
vt -3.815188 1.484861
vt 4.815188 -0.484861
vt -3.815188 1.484861
vt -3.815188 -0.484861
vt 4.815188 -0.484861
vt -3.815188 1.484861
vt -3.815188 -0.484861
vt 4.815188 -0.484861
vt -3.815188 1.484861
vt -3.815188 -0.484861
vt 4.815188 -0.484861
vt 1.750000 -0.750000
vt -0.750000 1.750000
vt -0.750000 -0.750000
vt 4.815188 -0.484861
vt 4.815188 1.484861
vt 4.815188 1.484861
vt 4.815188 1.484861
vt 4.815188 1.484861
vt 1.750000 1.750000
vn 0.0023 0.0000 -1.0000
vn 0.0820 -0.9966 0.0000
vn -0.0000 -0.0000 1.0000
vn -0.0000 1.0000 0.0000
vn -1.0000 -0.0000 0.0000
vn 0.9977 -0.0000 -0.0673
vn 0.0000 -0.0053 -1.0000
vn 0.0000 -0.4352 -0.9003
vn 1.0000 -0.0062 0.0000
usemtl Material.032
s off
f 33/89/37 36/90/37 35/91/37
f 36/92/38 39/93/38 35/94/38
f 40/95/39 37/96/39 39/97/39
f 38/98/40 33/99/40 37/100/40
f 39/101/41 33/99/41 35/94/41
f 36/102/42 38/103/42 40/104/42
f 33/89/43 34/105/43 36/90/43
f 36/92/44 40/106/44 39/93/44
f 40/95/39 38/107/39 37/96/39
f 38/98/40 34/108/40 33/99/40
f 39/101/41 37/109/41 33/99/41
f 36/102/45 34/110/45 38/103/45
o Cube.569_Cube.026
v -140.823624 17.163347 -58.848667
v -109.972816 17.163349 -58.848663
v -140.823608 -3.473631 -58.848671
v -110.055275 -0.187735 -58.757111
v -140.823624 17.163347 -57.168667
v -109.972816 17.163349 -57.168663
v -140.823624 -3.473631 -57.168671
v -109.972816 -3.473629 -57.168667
vt -3.815188 -0.484861
vt 4.815188 1.484861
vt -3.815188 1.484861
vt 4.815188 -0.484861
vt -3.815188 1.484861
vt -3.815188 -0.484861
vt 4.815188 -0.484861
vt -3.815188 1.484861
vt -3.815188 -0.484861
vt 4.815188 -0.484861
vt -3.815188 1.484861
vt -3.815188 -0.484861
vt 4.815188 -0.484861
vt 1.750000 -0.750000
vt -0.750000 1.750000
vt -0.750000 -0.750000
vt 4.815188 -0.484861
vt 4.815188 1.484861
vt 4.815188 1.484861
vt 4.815188 1.484861
vt 4.815188 1.484861
vt 1.750000 1.750000
vn 0.0030 0.0000 -1.0000
vn 0.1062 -0.9943 0.0000
vn 0.0000 -0.0000 1.0000
vn -0.0000 1.0000 0.0000
vn -1.0000 -0.0000 -0.0000
vn 0.9987 -0.0000 -0.0518
vn 0.0000 -0.0053 -1.0000
vn -0.0000 -0.4352 -0.9003
vn 1.0000 -0.0048 0.0000
usemtl Material.033
s off
f 41/111/46 44/112/46 43/113/46
f 44/114/47 47/115/47 43/116/47
f 48/117/48 45/118/48 47/119/48
f 46/120/49 41/121/49 45/122/49
f 47/123/50 41/121/50 43/116/50
f 44/124/51 46/125/51 48/126/51
f 41/111/52 42/127/52 44/112/52
f 44/114/53 48/128/53 47/115/53
f 48/117/48 46/129/48 45/118/48
f 46/120/49 42/130/49 41/121/49
f 47/123/50 45/131/50 41/121/50
f 44/124/54 42/132/54 46/125/54
o Grass.048_Grass.013
v -221.200104 5.287925 -95.246117
v -210.995682 4.369311 -95.246117
v -210.995682 4.369312 -105.081978
v -221.200104 5.287927 -105.081978
vt -4.750425 -3.983682
vt 5.750425 -3.983682
vt 5.750425 4.983682
vt -4.750425 4.983682
vn 0.0897 0.9960 0.0000
usemtl Grass.057
s 1
f 49/133/55 50/134/55 51/135/55
f 49/133/55 51/135/55 52/136/55
o Grass.054_Grass.013
v -210.995682 4.369314 -95.246117
v -211.219116 1.887238 -95.246117
v -211.219116 1.887238 -105.081978
v -210.995682 4.369314 -105.081978
vt -4.750425 -3.983682
vt 5.750425 -3.983682
vt 5.750425 4.983682
vt -4.750425 4.983682
vn 0.9960 -0.0897 0.0000
usemtl Grass.057
s 1
f 53/137/56 54/138/56 55/139/56
f 53/137/56 55/139/56 56/140/56
o Grass.055_Grass.013
v -221.200104 5.287927 -105.081978
v -221.423538 2.805851 -105.081978
v -221.423553 2.805851 -95.246117
v -221.200104 5.287927 -95.246117
vt -4.750425 -3.983682
vt 5.750425 -3.983682
vt 5.750425 4.983682
vt -4.750425 4.983682
vn -0.9960 0.0897 -0.0000
usemtl Grass.057
s 1
f 57/141/57 58/142/57 59/143/57
f 57/141/57 59/143/57 60/144/57
o Grass.056_Grass.013
v -210.995667 4.369314 -105.081970
v -211.219101 1.887239 -105.081970
v -221.423523 2.805851 -105.081978
v -221.200089 5.287927 -105.081978
vt -4.750425 -3.983682
vt 5.750425 -3.983682
vt 5.750425 4.983682
vt -4.750425 4.983682
vn -0.0000 -0.0000 -1.0000
usemtl Grass.057
s 1
f 61/145/58 62/146/58 63/147/58
f 61/145/58 63/147/58 64/148/58
o Grass.057_Grass.013
v -221.200089 5.287927 -95.246101
v -221.423523 2.805851 -95.246101
v -211.219101 1.887239 -95.246094
v -210.995667 4.369314 -95.246094
vt -4.750425 -3.983682
vt 5.750425 -3.983682
vt 5.750425 4.983682
vt -4.750425 4.983682
vn -0.0000 0.0000 1.0000
usemtl Grass.057
s 1
f 65/149/59 66/150/59 67/151/59
f 65/149/59 67/151/59 68/152/59
o Grass.058_Grass.022
v -222.974625 2.167628 -140.311798
v -221.477753 -1.115943 -139.581085
v -208.606567 5.677610 -135.419937
v -210.103424 8.961182 -136.150650
vt -4.750425 -3.983682
vt 5.750425 -3.983682
vt 5.750425 4.983682
vt -4.750425 4.983682
vn -0.3342 0.0570 0.9408
usemtl Grass.069
s 1
f 69/153/60 70/154/60 71/155/60
f 69/153/60 71/155/60 72/156/60
o Grass.065_Grass.022
v -205.246582 8.132935 -149.821701
v -203.749710 4.849363 -149.090973
v -216.620911 -1.944188 -153.252106
v -218.117783 1.339383 -153.982819
vt -4.750425 -3.983682
vt 5.750425 -3.983682
vt 5.750425 4.983682
vt -4.750425 4.983682
vn 0.3342 -0.0570 -0.9408
usemtl Grass.069
s 1
f 73/157/61 74/158/61 75/159/61
f 73/157/61 75/159/61 76/160/61
o Grass.066_Grass.022
v -218.117767 1.339374 -153.982803
v -216.620895 -1.944197 -153.252090
v -221.477737 -1.115947 -139.581100
v -222.974609 2.167624 -140.311813
vt -4.750425 -3.983682
vt 5.750425 -3.983682
vt 5.750425 4.983682
vt -4.750425 4.983682
vn -0.8503 -0.4488 -0.2749
usemtl Grass.069
s 1
f 77/161/62 78/162/62 79/163/62
f 77/161/62 79/163/62 80/164/62
o Grass.067_Grass.022
v -210.103439 8.961147 -136.150742
v -208.606567 5.677576 -135.420029
v -203.749725 4.849332 -149.091019
v -205.246597 8.132903 -149.821732
vt -4.750425 -3.983682
vt 5.750425 -3.983682
vt 5.750425 4.983682
vt -4.750425 4.983682
vn 0.8503 0.4488 0.2749
usemtl Grass.069
s 1
f 81/165/63 82/166/63 83/167/63
f 81/165/63 83/167/63 84/168/63
o Grass.068_Grass.022
v -222.974609 2.167624 -140.311813
v -210.103394 8.961167 -136.150711
v -205.246567 8.132917 -149.821701
v -218.117767 1.339373 -153.982819
vt -4.750425 -3.983682
vt 5.750425 -3.983682
vt 5.750425 4.983682
vt -4.750425 4.983682
vn -0.4065 0.8918 -0.1985
usemtl Grass.069
s 1
f 85/169/64 86/170/64 87/171/64
f 85/169/64 87/171/64 88/172/64
o Grass.069_Grass.023
v -192.721725 6.863986 -103.868698
v -184.422195 11.992371 -100.739563
v -182.584290 14.680920 -110.020615
v -190.883804 9.552535 -113.149750
vt -4.750425 -3.983682
vt 5.750425 -3.983682
vt 5.750425 4.983682
vt -4.750425 4.983682
vn -0.5558 0.8214 0.1279
usemtl Grass.070
s 1
f 89/173/65 90/174/65 91/175/65
f 89/173/65 91/175/65 92/176/65
o Grass.070_Grass.023
v -184.422211 11.992372 -100.739563
v -178.727768 3.576284 -102.049881
v -176.889862 6.264833 -111.330933
v -182.584290 14.680921 -110.020607
vt -4.750425 -3.983682
vt 5.750425 -3.983682
vt 5.750425 4.983682
vt -4.750425 4.983682
vn 0.8101 0.5005 0.3054
usemtl Grass.070
s 1
f 93/177/66 94/178/66 95/179/66
f 93/177/66 95/179/66 96/180/66
o Grass.071_Grass.023
v -190.883835 9.552541 -113.149750
v -185.189392 1.136454 -114.460068
v -187.027313 -1.552097 -105.179024
v -192.721756 6.863990 -103.868698
vt -4.750425 -3.983682
vt 5.750425 -3.983682
vt 5.750425 4.983682
vt -4.750425 4.983682
vn -0.8101 -0.5005 -0.3054
usemtl Grass.070
s 1
f 97/181/67 98/182/67 99/183/67
f 97/181/67 99/183/67 100/184/67
o Grass.072_Grass.023
v -182.584320 14.680920 -110.020607
v -176.889877 6.264833 -111.330933
v -185.189407 1.136449 -114.460075
v -190.883850 9.552536 -113.149757
vt -4.750425 -3.983682
vt 5.750425 -3.983682
vt 5.750425 4.983682
vt -4.750425 4.983682
vn 0.1869 0.2733 -0.9436
usemtl Grass.070
s 1
f 101/185/68 102/186/68 103/187/68
f 101/185/68 103/187/68 104/188/68
o Grass.073_Grass.023
v -192.721756 6.863987 -103.868690
v -187.027313 -1.552100 -105.179016
v -178.727783 3.576281 -102.049858
v -184.422226 11.992368 -100.739532
vt -4.750425 -3.983682
vt 5.750425 -3.983682
vt 5.750425 4.983682
vt -4.750425 4.983682
vn -0.1869 -0.2733 0.9436
usemtl Grass.070
s 1
f 105/189/69 106/190/69 107/191/69
f 105/189/69 107/191/69 108/192/69
o Grass.074_Grass.025
v -151.372696 17.371700 -115.011765
v -149.425034 17.371700 -115.011765
v -149.425034 17.371702 -128.708832
v -151.372696 17.371702 -128.708832
vt -1.977548 -3.232734
vt 2.977548 -3.232734
vt 2.977548 4.232735
vt -1.977548 4.232735
vn 0.0000 1.0000 0.0000
usemtl Grass.075
s 1
f 109/193/70 110/194/70 111/195/70
f 109/193/70 111/195/70 112/196/70
o Grass.075_Grass.025
v -149.424988 17.371700 -115.011765
v -149.424988 15.955024 -115.011765
v -149.424988 15.955024 -128.708832
v -149.424988 17.371700 -128.708832
vt -1.977548 -3.232734
vt 2.977548 -3.232734
vt 2.977548 4.232735
vt -1.977548 4.232735
vn 1.0000 0.0000 0.0000
usemtl Grass.075
s 1
f 113/197/71 114/198/71 115/199/71
f 113/197/71 115/199/71 116/200/71
o Grass.076_Grass.025
v -151.372681 17.371700 -128.708832
v -151.372681 15.955024 -128.708832
v -151.372681 15.955024 -115.011765
v -151.372681 17.371700 -115.011765
vt -1.977548 -3.232734
vt 2.977548 -3.232734
vt 2.977548 4.232735
vt -1.977548 4.232735
vn -1.0000 0.0000 0.0000
usemtl Grass.075
s 1
f 117/201/72 118/202/72 119/203/72
f 117/201/72 119/203/72 120/204/72
o Grass.077_Grass.025
v -149.425034 17.371700 -128.708832
v -149.425034 15.955024 -128.708832
v -151.372696 15.955024 -128.708832
v -151.372696 17.371700 -128.708832
vt -1.977548 -3.232734
vt 2.977548 -3.232734
vt 2.977548 4.232735
vt -1.977548 4.232735
vn 0.0000 0.0000 -1.0000
usemtl Grass.075
s 1
f 121/205/73 122/206/73 123/207/73
f 121/205/73 123/207/73 124/208/73
o Grass.079_Grass.026
v -151.372696 15.955024 -115.011765
v -149.425034 15.955024 -115.011765
v -149.425034 15.955026 -128.708832
v -151.372696 15.955026 -128.708832
vt -4.750425 -3.983682
vt 5.750425 -3.983682
vt 5.750425 4.983682
vt -4.750425 4.983682
vn 0.0000 1.0000 0.0000
usemtl Grass.076
s 1
f 125/209/74 126/210/74 127/211/74
f 125/209/74 127/211/74 128/212/74
o Grass.080_Grass.028
v -152.385910 6.733191 -87.941757
v -152.609344 4.320183 -87.360298
v -142.404922 3.427136 -87.145088
v -142.181488 5.840144 -87.726547
vt -4.750425 -3.983682
vt 5.750425 -3.983682
vt 5.750425 4.983682
vt -4.750425 4.983682
vn -0.0000 0.2343 0.9722
usemtl Grass.077
s 1
f 129/213/75 130/214/75 131/215/75
f 129/213/75 131/215/75 132/216/75
o Grass.081_Grass.028
v -142.181488 3.535974 -97.288719
v -142.404922 1.122966 -96.707260
v -152.609344 2.016016 -96.922462
v -152.385910 4.429024 -97.503914
vt -4.750425 -3.983682
vt 5.750425 -3.983682
vt 5.750425 4.983682
vt -4.750425 4.983682
vn 0.0000 -0.2343 -0.9722
usemtl Grass.077
s 1
f 133/217/76 134/218/76 135/219/76
f 133/217/76 135/219/76 136/220/76
o Grass.082_Grass.028
v -152.385925 4.429023 -97.503929
v -152.609360 2.016016 -96.922470
v -152.609375 4.320181 -87.360306
v -152.385925 6.733189 -87.941765
vt -4.750425 -3.983682
vt 5.750425 -3.983682
vt 5.750425 4.983682
vt -4.750425 4.983682
vn -0.9960 0.0872 -0.0210
usemtl Grass.077
s 1
f 137/221/77 138/222/77 139/223/77
f 137/221/77 139/223/77 140/224/77
o Grass.083_Grass.028
v -142.181503 5.840137 -87.726555
v -142.404938 3.427130 -87.145096
v -142.404938 1.122964 -96.707260
v -142.181503 3.535972 -97.288712
vt -4.750425 -3.983682
vt 5.750425 -3.983682
vt 5.750425 4.983682
vt -4.750425 4.983682
vn 0.9960 -0.0872 0.0210
usemtl Grass.077
s 1
f 141/225/78 142/226/78 143/227/78
f 141/225/78 143/227/78 144/228/78
o Grass.084_Grass.028
v -152.385925 6.733187 -87.941772
v -142.181503 5.840135 -87.726570
v -142.181503 3.535971 -97.288734
v -152.385925 4.429023 -97.503929
vt -4.750425 -3.983682
vt 5.750425 -3.983682
vt 5.750425 4.983682
vt -4.750425 4.983682
vn 0.0897 0.9683 -0.2333
usemtl Grass.077
s 1
f 145/229/79 146/230/79 147/231/79
f 145/229/79 147/231/79 148/232/79
o Grass.085_Grass.029
v -151.881485 6.095163 -48.040462
v -152.104919 3.613087 -48.040462
v -141.900497 2.694475 -48.040451
v -141.677063 5.176550 -48.040451
vt -4.750425 -3.983682
vt 5.750425 -3.983682
vt 5.750425 4.983682
vt -4.750425 4.983682
vn -0.0000 0.0000 1.0000
usemtl Grass.078
s 1
f 149/233/80 150/234/80 151/235/80
f 149/233/80 151/235/80 152/236/80
o Grass.086_Grass.029
v -141.677063 5.176550 -57.876331
v -141.900497 2.694475 -57.876331
v -152.104919 3.613087 -57.876335
v -151.881485 6.095163 -57.876335
vt -4.750425 -3.983682
vt 5.750425 -3.983682
vt 5.750425 4.983682
vt -4.750425 4.983682
vn 0.0000 -0.0000 -1.0000
usemtl Grass.078
s 1
f 153/237/81 154/238/81 155/239/81
f 153/237/81 155/239/81 156/240/81
o Grass.087_Grass.029
v -151.881470 6.095162 -57.876335
v -152.104904 3.613087 -57.876335
v -152.104919 3.613087 -48.040474
v -151.881470 6.095162 -48.040474
vt -4.750425 -3.983682
vt 5.750425 -3.983682
vt 5.750425 4.983682
vt -4.750425 4.983682
vn -0.9960 0.0897 -0.0000
usemtl Grass.078
s 1
f 157/241/82 158/242/82 159/243/82
f 157/241/82 159/243/82 160/244/82
o Grass.088_Grass.029
v -141.677048 5.176549 -48.040474
v -141.900482 2.694474 -48.040474
v -141.900482 2.694474 -57.876335
v -141.677048 5.176549 -57.876335
vt -4.750425 -3.983682
vt 5.750425 -3.983682
vt 5.750425 4.983682
vt -4.750425 4.983682
vn 0.9960 -0.0897 0.0000
usemtl Grass.078
s 1
f 161/245/83 162/246/83 163/247/83
f 161/245/83 163/247/83 164/248/83
o Grass.089_Grass.029
v -151.881470 6.095161 -48.040474
v -141.677048 5.176547 -48.040474
v -141.677048 5.176549 -57.876335
v -151.881470 6.095162 -57.876335
vt -4.750425 -3.983682
vt 5.750425 -3.983682
vt 5.750425 4.983682
vt -4.750425 4.983682
vn 0.0897 0.9960 0.0000
usemtl Grass.078
s 1
f 165/249/84 166/250/84 167/251/84
f 165/249/84 167/251/84 168/252/84
o Grass.090_Grass.030
v -116.157143 6.095161 -48.040474
v -105.952721 5.176547 -48.040474
v -105.952721 5.176549 -57.876335
v -116.157143 6.095162 -57.876335
vt -4.750425 -3.983682
vt 5.750425 -3.983682
vt 5.750425 4.983682
vt -4.750425 4.983682
vn 0.0897 0.9960 0.0000
usemtl Grass.079
s 1
f 169/253/85 170/254/85 171/255/85
f 169/253/85 171/255/85 172/256/85
o Grass.091_Grass.030
v -105.952721 5.176549 -48.040474
v -106.176155 2.694474 -48.040474
v -106.176155 2.694474 -57.876335
v -105.952713 5.176549 -57.876335
vt -4.750425 -3.983682
vt 5.750425 -3.983682
vt 5.750425 4.983682
vt -4.750425 4.983682
vn 0.9960 -0.0897 0.0000
usemtl Grass.079
s 1
f 173/257/86 174/258/86 175/259/86
f 173/257/86 175/259/86 176/260/86
o Grass.092_Grass.030
v -116.157143 6.095162 -57.876335
v -116.380577 3.613087 -57.876335
v -116.380585 3.613087 -48.040474
v -116.157143 6.095162 -48.040474
vt -4.750425 -3.983682
vt 5.750425 -3.983682
vt 5.750425 4.983682
vt -4.750425 4.983682
vn -0.9960 0.0897 -0.0000
usemtl Grass.079
s 1
f 177/261/87 178/262/87 179/263/87
f 177/261/87 179/263/87 180/264/87
o Grass.093_Grass.030
v -105.952721 5.176550 -57.876331
v -106.176155 2.694475 -57.876331
v -116.380577 3.613087 -57.876335
v -116.157143 6.095163 -57.876335
vt -4.750425 -3.983682
vt 5.750425 -3.983682
vt 5.750425 4.983682
vt -4.750425 4.983682
vn 0.0000 -0.0000 -1.0000
usemtl Grass.079
s 1
f 181/265/88 182/266/88 183/267/88
f 181/265/88 183/267/88 184/268/88
o Grass.094_Grass.030
v -116.157143 6.095163 -48.040462
v -116.380577 3.613087 -48.040462
v -106.176155 2.694475 -48.040451
v -105.952721 5.176550 -48.040451
vt -4.750425 -3.983682
vt 5.750425 -3.983682
vt 5.750425 4.983682
vt -4.750425 4.983682
vn -0.0000 0.0000 1.0000
usemtl Grass.079
s 1
f 185/269/89 186/270/89 187/271/89
f 185/269/89 187/271/89 188/272/89
o Grass.095_Grass.031
v -132.345139 5.893650 -117.814659
v -132.640289 3.419077 -117.814659
v -122.466713 2.205623 -117.814644
v -122.171555 4.680195 -117.814644
vt -4.750425 -3.983682
vt 5.750425 -3.983682
vt 5.750425 4.983682
vt -4.750425 4.983682
vn -0.0000 0.0000 1.0000
usemtl Grass.080
s 1
f 189/273/90 190/274/90 191/275/90
f 189/273/90 191/275/90 192/276/90
o Grass.096_Grass.031
v -122.171555 4.680195 -127.650528
v -122.466713 2.205623 -127.650528
v -132.640289 3.419077 -127.650536
v -132.345139 5.893650 -127.650536
vt -4.750425 -3.983682
vt 5.750425 -3.983682
vt 5.750425 4.983682
vt -4.750425 4.983682
vn 0.0000 -0.0000 -1.0000
usemtl Grass.080
s 1
f 193/277/91 194/278/91 195/279/91
f 193/277/91 195/279/91 196/280/91
o Grass.097_Grass.031
v -132.345139 5.893649 -127.650536
v -132.640289 3.419077 -127.650536
v -132.640289 3.419078 -117.814674
v -132.345139 5.893650 -117.814674
vt -4.750425 -3.983682
vt 5.750425 -3.983682
vt 5.750425 4.983682
vt -4.750425 4.983682
vn -0.9930 0.1184 -0.0000
usemtl Grass.080
s 1
f 197/281/92 198/282/92 199/283/92
f 197/281/92 199/283/92 200/284/92
o Grass.098_Grass.031
v -122.171577 4.680195 -117.814674
v -122.466736 2.205623 -117.814674
v -122.466728 2.205623 -127.650536
v -122.171577 4.680195 -127.650536
vt -4.750425 -3.983682
vt 5.750425 -3.983682
vt 5.750425 4.983682
vt -4.750425 4.983682
vn 0.9930 -0.1184 0.0000
usemtl Grass.080
s 1
f 201/285/93 202/286/93 203/287/93
f 201/285/93 203/287/93 204/288/93
o Grass.099_Grass.031
v -132.345154 5.893648 -117.814674
v -122.171577 4.680192 -117.814674
v -122.171577 4.680194 -127.650536
v -132.345154 5.893650 -127.650536
vt -4.750425 -3.983682
vt 5.750425 -3.983682
vt 5.750425 4.983682
vt -4.750425 4.983682
vn 0.1184 0.9930 0.0000
usemtl Grass.080
s 1
f 205/289/94 206/290/94 207/291/94
f 205/289/94 207/291/94 208/292/94
