# Blender v2.90.1 OBJ File: ''
# www.blender.org
mtllib stage.mtl
o 立方体.001_立方体.016
v 4.000000 -19.500000 -4.500000
v 4.000000 0.500000 -4.500000
v 4.000000 -19.500000 -10.500000
v 4.000000 0.500000 -10.500000
v 5.000000 -19.500000 -4.500000
v 5.000000 0.500000 -4.500000
v 5.000000 -19.500000 -10.500000
v 5.000000 0.500000 -10.500000
v -5.000000 -19.500002 -9.500000
v -5.000000 0.500000 -9.500000
v -5.000000 -19.500002 -10.500000
v -5.000000 0.500000 -10.500000
v 5.000000 -19.500002 -9.500000
v 5.000000 0.500000 -9.500000
v 5.000000 -19.500002 -10.500000
v 5.000000 0.500000 -10.500000
v -5.000000 -19.500002 -4.499999
v -5.000000 0.500000 -4.499999
v -5.000000 -19.500002 -10.499999
v -5.000000 0.500000 -10.499999
v -4.000000 -19.500002 -4.499999
v -4.000000 0.500000 -4.499999
v -4.000000 -19.500002 -10.499999
v -4.000000 0.500000 -10.499999
v -5.000000 -0.500000 -9.500000
v -5.000000 0.500000 -9.500000
v -5.000000 -0.500000 -10.500000
v -5.000000 0.500000 -10.500000
v 5.000000 -0.500000 -9.500000
v 5.000000 0.500000 -9.500000
v 5.000000 -0.500000 -10.500000
v 5.000000 0.500000 -10.500000
v -5.000000 2.500000 -12.500000
v -5.000000 3.500001 -12.500000
v -5.000000 2.500000 -13.500000
v -5.000000 3.500001 -13.500000
v 5.000000 2.500000 -12.500000
v 5.000000 3.500001 -12.500000
v 5.000000 2.500000 -13.500000
v 5.000000 3.500001 -13.500000
v 4.000000 3.500001 -13.500000
v 4.000000 9.500000 -13.500000
v 4.000000 3.500001 -19.000000
v 4.000000 9.500000 -19.000000
v 5.000000 3.500001 -13.500000
v 5.000000 9.500000 -13.500000
v 5.000000 3.500001 -19.000000
v 5.000000 9.500000 -19.000000
v 4.000000 0.000000 10.000002
v 4.000000 6.000001 10.000002
v 4.000000 0.000000 -10.499999
v 4.000000 6.000001 -10.499999
v 5.000000 0.000000 10.000002
v 5.000000 6.000001 10.000002
v 5.000000 0.000000 -10.499999
v 5.000000 6.000001 -10.499999
v 4.000000 9.499235 -13.499998
v 4.000000 3.499235 -13.499998
v 5.000000 3.499235 -13.499998
v 5.000000 9.499235 -13.499998
v 1.640553 0.500000 -8.858837
v 1.640553 -0.500000 -8.858837
v 1.640553 0.500000 -5.333962
v 1.640553 -0.500000 -5.333962
v -1.640553 0.500000 -8.858837
v -1.640553 -0.500000 -8.858837
v -1.640553 0.500000 -5.333962
v -1.640553 -0.500000 -5.333962
v -5.000000 -0.500000 -10.499999
v -5.000000 -0.500000 10.000002
v 5.000000 -0.500000 -10.499999
v 5.000000 0.500000 10.000002
v -5.000000 0.500000 10.000002
v 5.000000 0.500000 -10.499999
v 5.000000 -0.500000 10.000002
v -5.000000 0.500000 -10.499999
v -5.000000 2.500000 -13.000000
v -5.000000 3.500001 -13.000000
v -5.000000 2.500000 -19.000000
v -5.000000 3.500001 -19.000000
v 5.000000 2.500000 -13.000000
v 5.000000 3.500001 -13.000000
v 5.000000 2.500000 -19.000000
v 5.000000 3.500001 -19.000000
v -5.000000 3.500001 -13.500000
v -5.000000 9.500000 -13.500000
v -5.000000 3.500001 -19.000000
v -5.000000 9.500000 -19.000000
v -4.000000 3.500001 -13.500000
v -4.000000 9.500000 -13.500000
v -4.000000 3.500001 -19.000000
v -4.000000 9.500000 -19.000000
v -5.000000 0.000000 10.000002
v -5.000000 6.000001 10.000002
v -5.000000 0.000000 -10.499999
v -5.000000 6.000001 -10.499999
v -4.000000 0.000000 10.000002
v -4.000000 6.000001 10.000002
v -4.000000 0.000000 -10.499999
v -4.000000 6.000001 -10.499999
v -5.000000 9.499235 -13.499998
v -5.000000 3.499235 -13.499998
v -4.000000 3.499235 -13.499998
v -4.000000 9.499235 -13.499998
v -5.000000 3.500001 -18.000000
v -5.000000 9.500000 -18.000000
v -5.000000 3.500001 -19.000000
v -5.000000 9.500000 -19.000000
v 5.000000 3.500001 -18.000000
v 5.000000 9.500000 -18.000000
v 5.000000 3.500001 -19.000000
v 5.000000 9.500000 -19.000000
v -5.000000 0.500000 -10.500000
v -5.000000 1.500000 -10.500000
v -5.000000 0.500000 -11.500000
v -5.000000 1.500000 -11.500000
v 5.000000 0.500000 -10.500000
v 5.000000 1.500000 -10.500000
v 5.000000 0.500000 -11.500000
v 5.000000 1.500000 -11.500000
v -5.000000 1.500000 -11.500000
v -5.000000 2.500000 -11.500000
v -5.000000 1.500000 -12.500000
v -5.000000 2.500000 -12.500000
v 5.000000 1.500000 -11.500000
v 5.000000 2.500000 -11.500000
v 5.000000 1.500000 -12.500000
v 5.000000 2.500000 -12.500000
vt 0.375000 0.000000
vt 0.625000 0.000000
vt 0.625000 0.250000
vt 0.375000 0.250000
vt 0.625000 0.500000
vt 0.375000 0.500000
vt 0.625000 0.750000
vt 0.375000 0.750000
vt 0.625000 1.000000
vt 0.375000 1.000000
vt 0.125000 0.500000
vt 0.125000 0.750000
vt 0.875000 0.500000
vt 0.875000 0.750000
vt 0.375000 0.000000
vt 0.625000 0.000000
vt 0.625000 0.250000
vt 0.375000 0.250000
vt 0.625000 0.500000
vt 0.375000 0.500000
vt 0.625000 0.750000
vt 0.375000 0.750000
vt 0.625000 1.000000
vt 0.375000 1.000000
vt 0.125000 0.500000
vt 0.125000 0.750000
vt 0.875000 0.500000
vt 0.875000 0.750000
vt 0.375000 0.000000
vt 0.625000 0.000000
vt 0.625000 0.250000
vt 0.375000 0.250000
vt 0.625000 0.500000
vt 0.375000 0.500000
vt 0.625000 0.750000
vt 0.375000 0.750000
vt 0.625000 1.000000
vt 0.375000 1.000000
vt 0.125000 0.500000
vt 0.125000 0.750000
vt 0.875000 0.500000
vt 0.875000 0.750000
vt 0.375000 0.000000
vt 0.625000 0.000000
vt 0.625000 0.250000
vt 0.375000 0.250000
vt 0.625000 0.500000
vt 0.375000 0.500000
vt 0.625000 0.750000
vt 0.375000 0.750000
vt 0.625000 1.000000
vt 0.375000 1.000000
vt 0.125000 0.500000
vt 0.125000 0.750000
vt 0.875000 0.500000
vt 0.875000 0.750000
vt 0.375000 0.000000
vt 0.625000 0.000000
vt 0.625000 0.250000
vt 0.375000 0.250000
vt 0.625000 0.500000
vt 0.375000 0.500000
vt 0.625000 0.750000
vt 0.375000 0.750000
vt 0.625000 1.000000
vt 0.375000 1.000000
vt 0.125000 0.500000
vt 0.125000 0.750000
vt 0.875000 0.500000
vt 0.875000 0.750000
vt 0.375000 0.000000
vt 0.625000 0.000000
vt 0.625000 0.250000
vt 0.375000 0.250000
vt 0.625000 0.500000
vt 0.375000 0.500000
vt 0.625000 0.750000
vt 0.375000 0.750000
vt 0.625000 1.000000
vt 0.375000 1.000000
vt 0.125000 0.500000
vt 0.125000 0.750000
vt 0.875000 0.500000
vt 0.875000 0.750000
vt 0.375000 0.000000
vt 0.625000 0.000000
vt 0.625000 0.250000
vt 0.375000 0.250000
vt 0.625000 0.500000
vt 0.375000 0.500000
vt 0.375000 0.500000
vt 0.625000 0.500000
vt 0.625000 0.750000
vt 0.375000 0.750000
vt 0.625000 1.000000
vt 0.375000 1.000000
vt 0.125000 0.500000
vt 0.125000 0.750000
vt 0.875000 0.500000
vt 0.875000 0.750000
vt 0.375000 0.250000
vt 0.625000 0.250000
vt 0.125000 0.500000
vt 0.875000 0.500000
vt 0.000000 0.000000
vt 0.000000 0.000000
vt 0.000000 0.000000
vt 0.000000 0.000000
vt 0.000000 0.000000
vt 0.000000 0.000000
vt 0.000000 0.000000
vt 0.000000 0.000000
vt 0.000000 0.000000
vt 0.000000 0.000000
vt 0.000000 0.000000
vt 0.000000 0.000000
vt 0.000000 0.000000
vt 0.000000 0.000000
vt 0.000000 0.000000
vt 0.000000 0.000000
vt 0.375000 0.000000
vt 0.625000 0.000000
vt 0.625000 0.250000
vt 0.375000 0.250000
vt 0.625000 0.500000
vt 0.375000 0.500000
vt 0.625000 0.750000
vt 0.375000 0.750000
vt 0.625000 1.000000
vt 0.375000 1.000000
vt 0.125000 0.500000
vt 0.125000 0.750000
vt 0.875000 0.500000
vt 0.875000 0.750000
vt 0.375000 0.000000
vt 0.625000 0.000000
vt 0.625000 0.250000
vt 0.375000 0.250000
vt 0.625000 0.500000
vt 0.375000 0.500000
vt 0.625000 0.750000
vt 0.375000 0.750000
vt 0.625000 1.000000
vt 0.375000 1.000000
vt 0.125000 0.500000
vt 0.125000 0.750000
vt 0.875000 0.500000
vt 0.875000 0.750000
vt 0.375000 0.000000
vt 0.625000 0.000000
vt 0.625000 0.250000
vt 0.375000 0.250000
vt 0.625000 0.500000
vt 0.375000 0.500000
vt 0.375000 0.500000
vt 0.625000 0.500000
vt 0.625000 0.750000
vt 0.375000 0.750000
vt 0.625000 1.000000
vt 0.375000 1.000000
vt 0.125000 0.500000
vt 0.125000 0.750000
vt 0.875000 0.500000
vt 0.875000 0.750000
vt 0.375000 0.250000
vt 0.625000 0.250000
vt 0.125000 0.500000
vt 0.875000 0.500000
vt 0.375000 0.000000
vt 0.625000 0.000000
vt 0.625000 0.250000
vt 0.375000 0.250000
vt 0.625000 0.500000
vt 0.375000 0.500000
vt 0.625000 0.750000
vt 0.375000 0.750000
vt 0.625000 1.000000
vt 0.375000 1.000000
vt 0.125000 0.500000
vt 0.125000 0.750000
vt 0.875000 0.500000
vt 0.875000 0.750000
vt 0.375000 0.000000
vt 0.625000 0.000000
vt 0.625000 0.250000
vt 0.375000 0.250000
vt 0.625000 0.500000
vt 0.375000 0.500000
vt 0.625000 0.750000
vt 0.375000 0.750000
vt 0.625000 1.000000
vt 0.375000 1.000000
vt 0.125000 0.500000
vt 0.125000 0.750000
vt 0.875000 0.500000
vt 0.875000 0.750000
vt 0.375000 0.000000
vt 0.625000 0.000000
vt 0.625000 0.250000
vt 0.375000 0.250000
vt 0.625000 0.500000
vt 0.375000 0.500000
vt 0.625000 0.750000
vt 0.375000 0.750000
vt 0.625000 1.000000
vt 0.375000 1.000000
vt 0.125000 0.500000
vt 0.125000 0.750000
vt 0.875000 0.500000
vt 0.875000 0.750000
vn -1.0000 0.0000 0.0000
vn 0.0000 0.0000 -1.0000
vn 1.0000 0.0000 0.0000
vn 0.0000 0.0000 1.0000
vn 0.0000 -1.0000 0.0000
vn 0.0000 1.0000 0.0000
vn 0.0000 -0.6509 -0.7592
vn 0.0000 0.6509 0.7592
usemtl Material
s off
f 1/1/1 2/2/1 4/3/1 3/4/1
f 3/4/2 4/3/2 8/5/2 7/6/2
f 7/6/3 8/5/3 6/7/3 5/8/3
f 5/8/4 6/7/4 2/9/4 1/10/4
f 3/11/5 7/6/5 5/8/5 1/12/5
f 8/5/6 4/13/6 2/14/6 6/7/6
f 9/15/1 10/16/1 12/17/1 11/18/1
f 11/18/2 12/17/2 16/19/2 15/20/2
f 15/20/3 16/19/3 14/21/3 13/22/3
f 13/22/4 14/21/4 10/23/4 9/24/4
f 11/25/5 15/20/5 13/22/5 9/26/5
f 16/19/6 12/27/6 10/28/6 14/21/6
f 17/29/1 18/30/1 20/31/1 19/32/1
f 19/32/2 20/31/2 24/33/2 23/34/2
f 23/34/3 24/33/3 22/35/3 21/36/3
f 21/36/4 22/35/4 18/37/4 17/38/4
f 19/39/5 23/34/5 21/36/5 17/40/5
f 24/33/6 20/41/6 18/42/6 22/35/6
f 25/43/1 26/44/1 28/45/1 27/46/1
f 27/46/2 28/45/2 32/47/2 31/48/2
f 31/48/3 32/47/3 30/49/3 29/50/3
f 29/50/4 30/49/4 26/51/4 25/52/4
f 27/53/5 31/48/5 29/50/5 25/54/5
f 32/47/6 28/55/6 26/56/6 30/49/6
f 33/57/1 34/58/1 36/59/1 35/60/1
f 35/60/2 36/59/2 40/61/2 39/62/2
f 39/62/3 40/61/3 38/63/3 37/64/3
f 37/64/4 38/63/4 34/65/4 33/66/4
f 35/67/5 39/62/5 37/64/5 33/68/5
f 40/61/6 36/69/6 34/70/6 38/63/6
f 41/71/1 42/72/1 44/73/1 43/74/1
f 43/74/2 44/73/2 48/75/2 47/76/2
f 47/76/3 48/75/3 46/77/3 45/78/3
f 45/78/4 46/77/4 42/79/4 41/80/4
f 43/81/5 47/76/5 45/78/5 41/82/5
f 48/75/6 44/83/6 42/84/6 46/77/6
f 49/85/1 50/86/1 52/87/1 51/88/1
f 56/89/3 55/90/3 59/91/3 60/92/3
f 55/90/3 56/89/3 54/93/3 53/94/3
f 53/94/4 54/93/4 50/95/4 49/96/4
f 51/97/5 55/90/5 53/94/5 49/98/5
f 56/89/6 52/99/6 50/100/6 54/93/6
f 58/101/2 57/102/2 60/92/2 59/91/2
f 55/90/7 51/97/7 58/103/7 59/91/7
f 52/99/8 56/89/8 60/92/8 57/104/8
f 51/88/1 52/87/1 57/102/1 58/101/1
f 63/105/1 61/106/1 62/107/1 64/108/1
f 75/109/4 72/110/4 73/111/4 70/112/4
f 70/112/1 73/111/1 76/113/1 69/114/1
f 67/115/2 63/105/2 64/108/2 68/116/2
f 71/117/3 74/118/3 72/110/3 75/109/3
f 69/114/2 76/113/2 74/118/2 71/117/2
f 66/119/5 68/116/5 70/112/5 69/114/5
f 62/107/5 66/119/5 69/114/5 71/117/5
f 63/105/6 67/115/6 73/111/6 72/110/6
f 61/106/6 63/105/6 72/110/6 74/118/6
f 68/116/5 64/108/5 75/109/5 70/112/5
f 67/115/6 65/120/6 76/113/6 73/111/6
f 65/120/6 61/106/6 74/118/6 76/113/6
f 64/108/5 62/107/5 71/117/5 75/109/5
f 61/106/4 65/120/4 66/119/4 62/107/4
f 65/120/3 67/115/3 68/116/3 66/119/3
f 77/121/1 78/122/1 80/123/1 79/124/1
f 79/124/2 80/123/2 84/125/2 83/126/2
f 83/126/3 84/125/3 82/127/3 81/128/3
f 81/128/4 82/127/4 78/129/4 77/130/4
f 79/131/5 83/126/5 81/128/5 77/132/5
f 84/125/6 80/133/6 78/134/6 82/127/6
f 85/135/1 86/136/1 88/137/1 87/138/1
f 87/138/2 88/137/2 92/139/2 91/140/2
f 91/140/3 92/139/3 90/141/3 89/142/3
f 89/142/4 90/141/4 86/143/4 85/144/4
f 87/145/5 91/140/5 89/142/5 85/146/5
f 92/139/6 88/147/6 86/148/6 90/141/6
f 93/149/1 94/150/1 96/151/1 95/152/1
f 100/153/3 99/154/3 103/155/3 104/156/3
f 99/154/3 100/153/3 98/157/3 97/158/3
f 97/158/4 98/157/4 94/159/4 93/160/4
f 95/161/5 99/154/5 97/158/5 93/162/5
f 100/153/6 96/163/6 94/164/6 98/157/6
f 102/165/2 101/166/2 104/156/2 103/155/2
f 99/154/7 95/161/7 102/167/7 103/155/7
f 96/163/8 100/153/8 104/156/8 101/168/8
f 95/152/1 96/151/1 101/166/1 102/165/1
f 105/169/1 106/170/1 108/171/1 107/172/1
f 107/172/2 108/171/2 112/173/2 111/174/2
f 111/174/3 112/173/3 110/175/3 109/176/3
f 109/176/4 110/175/4 106/177/4 105/178/4
f 107/179/5 111/174/5 109/176/5 105/180/5
f 112/173/6 108/181/6 106/182/6 110/175/6
f 113/183/1 114/184/1 116/185/1 115/186/1
f 115/186/2 116/185/2 120/187/2 119/188/2
f 119/188/3 120/187/3 118/189/3 117/190/3
f 117/190/4 118/189/4 114/191/4 113/192/4
f 115/193/5 119/188/5 117/190/5 113/194/5
f 120/187/6 116/195/6 114/196/6 118/189/6
f 121/197/1 122/198/1 124/199/1 123/200/1
f 123/200/2 124/199/2 128/201/2 127/202/2
f 127/202/3 128/201/3 126/203/3 125/204/3
f 125/204/4 126/203/4 122/205/4 121/206/4
f 123/207/5 127/202/5 125/204/5 121/208/5
f 128/201/6 124/209/6 122/210/6 126/203/6
