# Blender v2.91.2 OBJ File: 'test.blend'
# www.blender.org
mtllib stoneBlock.mtl
o Cube
v -1.056926 -1.003657 0.987343
v -1.056926 0.996343 0.987343
v -1.056926 -1.003657 -1.012656
v -1.056926 0.996343 -1.012656
v 0.943074 -1.003657 0.987343
v 0.943074 0.996343 0.987343
v 0.943074 -1.003657 -1.012656
v 0.943074 0.996343 -1.012656
vt -0.262500 -2.550000
vt 1.262500 -2.550000
vt 1.262500 -1.025000
vt -0.262500 -1.025000
vt 1.262500 0.500000
vt -0.262500 0.500000
vt 1.262500 2.025000
vt -0.262500 2.025000
vt 1.262500 3.550000
vt -0.262500 3.550000
vt -1.787500 0.500000
vt -1.787500 2.025000
vt 2.787500 0.500000
vt 2.787500 2.025000
vn -1.0000 0.0000 0.0000
vn 0.0000 0.0000 -1.0000
vn 1.0000 0.0000 0.0000
vn 0.0000 0.0000 1.0000
vn 0.0000 -1.0000 0.0000
vn 0.0000 1.0000 0.0000
usemtl Material
s off
f 1/1/1 2/2/1 4/3/1 3/4/1
f 3/4/2 4/3/2 8/5/2 7/6/2
f 7/6/3 8/5/3 6/7/3 5/8/3
f 5/8/4 6/7/4 2/9/4 1/10/4
f 3/11/5 7/6/5 5/8/5 1/12/5
f 8/5/6 4/13/6 2/14/6 6/7/6
