# Blender v2.91.2 OBJ File: 'WonderLand2.blend'
# www.blender.org
mtllib StoS.mtl
o Grass.122_Grass.062
v -233.210861 3.666635 -112.425514
v -233.210846 -4.986273 -112.425514
v -224.557938 -4.986272 -112.425507
v -224.557953 3.666636 -112.425507
vt -14.500000 -6.500000
vt 15.500000 -6.500000
vt 15.500000 7.500000
vt -14.500000 7.500000
vn -0.0000 0.0000 1.0000
usemtl Grass.100
s 1
f 1/1/1 2/2/1 3/3/1
f 1/1/1 3/3/1 4/4/1
o Grass.123_Grass.062
v -224.557953 3.666636 -126.270164
v -224.557938 -4.986272 -126.270164
v -233.210846 -4.986273 -126.270172
v -233.210861 3.666635 -126.270172
vt -14.500000 -6.500000
vt 15.500000 -6.500000
vt 15.500000 7.500000
vt -14.500000 7.500000
vn 0.0000 0.0000 -1.0000
usemtl Grass.100
s 1
f 5/5/2 6/6/2 7/7/2
f 5/5/2 7/7/2 8/8/2
o Grass.124_Grass.062
v -233.210861 3.666636 -126.270164
v -233.210846 -4.986273 -126.270164
v -233.210861 -4.986273 -112.425514
v -233.210861 3.666636 -112.425514
vt -14.500000 -6.500000
vt 15.500000 -6.500000
vt 15.500000 7.500000
vt -14.500000 7.500000
vn -1.0000 -0.0000 -0.0000
usemtl Grass.100
s 1
f 9/9/3 10/10/3 11/11/3
f 9/9/3 11/11/3 12/12/3
o Grass.125_Grass.062
v -224.557938 3.666636 -112.425514
v -224.557938 -4.986273 -112.425514
v -224.557938 -4.986273 -126.270164
v -224.557938 3.666636 -126.270164
vt -14.500000 -6.500000
vt 15.500000 -6.500000
vt 15.500000 7.500000
vt -14.500000 7.500000
vn 1.0000 0.0000 0.0000
usemtl Grass.100
s 1
f 13/13/4 14/14/4 15/15/4
f 13/13/4 15/15/4 16/16/4
o Grass.126_Grass.062
v -233.210846 3.666632 -112.425514
v -224.557953 3.666632 -112.425514
v -224.557953 3.666634 -126.270164
v -233.210846 3.666634 -126.270164
vt -14.500000 -6.500000
vt 15.500000 -6.500000
vt 15.500000 7.500000
vt -14.500000 7.500000
vn 0.0000 1.0000 0.0000
usemtl Grass.100
s 1
f 17/17/5 18/18/5 19/19/5
f 17/17/5 19/19/5 20/20/5
o Grass.127_Grass.063
v -233.083496 3.666632 -118.049904
v -233.083496 3.666632 -120.645775
v -246.928162 3.666634 -120.645775
v -246.928162 3.666634 -118.049904
vt -1.220053 -6.500000
vt 2.220053 -6.500000
vt 2.220053 7.500000
vt -1.220053 7.500000
vn 0.0000 1.0000 0.0000
usemtl Grass.138
s 1
f 21/21/6 22/22/6 23/23/6
f 21/21/6 23/23/6 24/24/6
o Grass.128_Grass.063
v -233.083496 3.666636 -120.645767
v -233.083496 -4.986272 -120.645767
v -246.928162 -4.986273 -120.645775
v -246.928162 3.666635 -120.645775
vt -1.220053 -6.500000
vt 2.220053 -6.500000
vt 2.220053 7.500000
vt -1.220053 7.500000
vn 0.0000 0.0000 -1.0000
usemtl Grass.138
s 1
f 25/25/7 26/26/7 27/27/7
f 25/25/7 27/27/7 28/28/7
o Grass.129_Grass.063
v -246.928162 3.666635 -118.049911
v -246.928162 -4.986273 -118.049911
v -233.083496 -4.986272 -118.049904
v -233.083496 3.666636 -118.049904
vt -1.220053 -6.500000
vt 2.220053 -6.500000
vt 2.220053 7.500000
vt -1.220053 7.500000
vn -0.0000 0.0000 1.0000
usemtl Grass.138
s 1
f 29/29/8 30/30/8 31/31/8
f 29/29/8 31/31/8 32/32/8
o Grass.130_Grass.063
v -246.928146 3.666636 -120.645775
v -246.928146 -4.986273 -120.645775
v -246.928146 -4.986273 -118.049904
v -246.928146 3.666636 -118.049904
vt -1.220053 -6.500000
vt 2.220053 -6.500000
vt 2.220053 7.500000
vt -1.220053 7.500000
vn -1.0000 0.0000 0.0000
usemtl Grass.138
s 1
f 33/33/9 34/34/9 35/35/9
f 33/33/9 35/35/9 36/36/9
o Grass.131_Grass.063
v -233.083511 3.666636 -118.049904
v -233.083511 -4.986273 -118.049904
v -233.083511 -4.986273 -120.645775
v -233.083511 3.666636 -120.645775
vt -1.220053 -6.500000
vt 2.220053 -6.500000
vt 2.220053 7.500000
vt -1.220053 7.500000
vn 1.0000 0.0000 0.0000
usemtl Grass.138
s 1
f 37/37/10 38/38/10 39/39/10
f 37/37/10 39/39/10 40/40/10
o Grass.132_Grass.064
v -246.827179 3.666636 -120.653587
v -246.827179 -4.986273 -120.653587
v -249.423065 -4.986273 -120.653595
v -249.423065 3.666636 -120.653595
vt -2.357222 -2.721138
vt 3.357222 -2.721138
vt 3.357222 3.721138
vt -2.357222 3.721138
vn 0.0000 0.0000 -1.0000
usemtl Grass.139
s 1
f 41/41/11 42/42/11 43/43/11
f 41/41/11 43/43/11 44/44/11
o Grass.133_Grass.064
v -249.423065 3.666636 -106.808952
v -249.423065 -4.986273 -106.808952
v -246.827179 -4.986273 -106.808945
v -246.827179 3.666636 -106.808945
vt -2.357222 -2.721138
vt 3.357222 -2.721138
vt 3.357222 3.721138
vt -2.357222 3.721138
vn -0.0000 0.0000 1.0000
usemtl Grass.139
s 1
f 45/45/12 46/46/12 47/47/12
f 45/45/12 47/47/12 48/48/12
o Grass.134_Grass.064
v -246.827194 3.666636 -106.808945
v -246.827194 -4.986273 -106.808945
v -246.827194 -4.986273 -120.653595
v -246.827194 3.666636 -120.653595
vt -2.357222 -2.721138
vt 3.357222 -2.721138
vt 3.357222 3.721138
vt -2.357222 3.721138
vn 1.0000 0.0000 0.0000
usemtl Grass.139
s 1
f 49/49/13 50/50/13 51/51/13
f 49/49/13 51/51/13 52/52/13
o Grass.135_Grass.064
v -249.423050 3.666636 -120.653595
v -249.423050 -4.986273 -120.653595
v -249.423050 -4.986273 -106.808945
v -249.423065 3.666636 -106.808945
vt -2.357222 -2.721138
vt 3.357222 -2.721138
vt 3.357222 3.721138
vt -2.357222 3.721138
vn -1.0000 -0.0000 -0.0000
usemtl Grass.139
s 1
f 53/53/14 54/54/14 55/55/14
f 53/53/14 55/55/14 56/56/14
o Grass.136_Grass.064
v -246.827179 3.666632 -120.653595
v -249.423050 3.666632 -120.653595
v -249.423065 3.666634 -106.808945
v -246.827194 3.666634 -106.808945
vt -2.357222 -2.721138
vt 3.357222 -2.721138
vt 3.357222 3.721138
vt -2.357222 3.721138
vn 0.0000 1.0000 -0.0000
usemtl Grass.139
s 1
f 57/57/15 58/58/15 59/59/15
f 57/57/15 59/59/15 60/60/15
o Grass.137_Grass.065
v -249.388184 3.666632 -106.804497
v -249.388184 3.666632 -109.400368
v -263.232849 3.666634 -109.400368
v -263.232849 3.666634 -106.804497
vt -2.357222 -2.721138
vt 3.357222 -2.721138
vt 3.357222 3.721138
vt -2.357222 3.721138
vn 0.0000 1.0000 0.0000
usemtl Grass.140
s 1
f 61/61/16 62/62/16 63/63/16
f 61/61/16 63/63/16 64/64/16
o Grass.138_Grass.065
v -249.388184 3.666636 -109.400360
v -249.388184 -4.986272 -109.400360
v -263.232849 -4.986273 -109.400368
v -263.232849 3.666635 -109.400368
vt -2.357222 -2.721138
vt 3.357222 -2.721138
vt 3.357222 3.721138
vt -2.357222 3.721138
vn 0.0000 0.0000 -1.0000
usemtl Grass.140
s 1
f 65/65/17 66/66/17 67/67/17
f 65/65/17 67/67/17 68/68/17
o Grass.139_Grass.065
v -263.232849 3.666635 -106.804504
v -263.232849 -4.986273 -106.804504
v -249.388184 -4.986272 -106.804497
v -249.388184 3.666636 -106.804497
vt -2.357222 -2.721138
vt 3.357222 -2.721138
vt 3.357222 3.721138
vt -2.357222 3.721138
vn -0.0000 0.0000 1.0000
usemtl Grass.140
s 1
f 69/69/18 70/70/18 71/71/18
f 69/69/18 71/71/18 72/72/18
o Grass.140_Grass.065
v -263.232849 3.666636 -109.400368
v -263.232849 -4.986273 -109.400368
v -263.232849 -4.986273 -106.804497
v -263.232849 3.666636 -106.804497
vt -2.357222 -2.721138
vt 3.357222 -2.721138
vt 3.357222 3.721138
vt -2.357222 3.721138
vn -1.0000 0.0000 0.0000
usemtl Grass.140
s 1
f 73/73/19 74/74/19 75/75/19
f 73/73/19 75/75/19 76/76/19
o Grass.141_Grass.065
v -249.388199 3.666636 -106.804497
v -249.388199 -4.986273 -106.804497
v -249.388199 -4.986273 -109.400368
v -249.388199 3.666636 -109.400368
vt -2.357222 -2.721138
vt 3.357222 -2.721138
vt 3.357222 3.721138
vt -2.357222 3.721138
vn 1.0000 0.0000 0.0000
usemtl Grass.140
s 1
f 77/77/20 78/78/20 79/79/20
f 77/77/20 79/79/20 80/80/20
o Grass.142_Grass.066
v -263.245361 3.666636 -120.647545
v -263.245361 -4.986273 -120.647545
v -265.841248 -4.986273 -120.647552
v -265.841248 3.666636 -120.647552
vt -2.357222 -2.721138
vt 3.357222 -2.721138
vt 3.357222 3.721138
vt -2.357222 3.721138
vn 0.0000 0.0000 -1.0000
usemtl Grass.141
s 1
f 81/81/21 82/82/21 83/83/21
f 81/81/21 83/83/21 84/84/21
o Grass.143_Grass.066
v -265.841248 3.666636 -106.802910
v -265.841248 -4.986273 -106.802910
v -263.245361 -4.986273 -106.802902
v -263.245361 3.666636 -106.802902
vt -2.357222 -2.721138
vt 3.357222 -2.721138
vt 3.357222 3.721138
vt -2.357222 3.721138
vn -0.0000 0.0000 1.0000
usemtl Grass.141
s 1
f 85/85/22 86/86/22 87/87/22
f 85/85/22 87/87/22 88/88/22
o Grass.144_Grass.066
v -263.245392 3.666636 -106.802902
v -263.245361 -4.986273 -106.802902
v -263.245361 -4.986273 -120.647552
v -263.245361 3.666636 -120.647552
vt -2.357222 -2.721138
vt 3.357222 -2.721138
vt 3.357222 3.721138
vt -2.357222 3.721138
vn 1.0000 0.0000 0.0000
usemtl Grass.141
s 1
f 89/89/23 90/90/23 91/91/23
f 89/89/23 91/91/23 92/92/23
o Grass.145_Grass.066
v -265.841248 3.666636 -120.647552
v -265.841217 -4.986273 -120.647552
v -265.841248 -4.986273 -106.802902
v -265.841248 3.666636 -106.802902
vt -2.357222 -2.721138
vt 3.357222 -2.721138
vt 3.357222 3.721138
vt -2.357222 3.721138
vn -1.0000 0.0000 -0.0000
usemtl Grass.141
s 1
f 93/93/24 94/94/24 95/95/24
f 93/93/24 95/95/24 96/96/24
o Grass.146_Grass.066
v -263.245361 3.666632 -120.647552
v -265.841248 3.666632 -120.647552
v -265.841248 3.666634 -106.802902
v -263.245361 3.666634 -106.802902
vt -2.357222 -2.721138
vt 3.357222 -2.721138
vt 3.357222 3.721138
vt -2.357222 3.721138
vn 0.0000 1.0000 -0.0000
usemtl Grass.141
s 1
f 97/97/25 98/98/25 99/99/25
f 97/97/25 99/99/25 100/100/25
o Grass.147_Grass.067
v -277.487152 3.666632 -120.595879
v -277.487152 3.666632 -118.000008
v -265.791779 3.666634 -118.000008
v -265.791779 3.666634 -120.595879
vt -2.357222 -2.721138
vt 3.357222 -2.721138
vt 3.357222 3.721138
vt -2.357222 3.721138
vn -0.0000 1.0000 0.0000
usemtl Grass.142
s 1
f 101/101/26 102/102/26 103/103/26
f 101/101/26 103/103/26 104/104/26
o Grass.148_Grass.067
v -277.487152 3.666635 -118.000015
v -277.487152 -4.986273 -118.000015
v -265.791779 -4.986272 -118.000008
v -265.791779 3.666636 -118.000008
vt -2.357222 -2.721138
vt 3.357222 -2.721138
vt 3.357222 3.721138
vt -2.357222 3.721138
vn -0.0000 0.0000 1.0000
usemtl Grass.142
s 1
f 105/105/27 106/106/27 107/107/27
f 105/105/27 107/107/27 108/108/27
o Grass.149_Grass.067
v -265.791779 3.666636 -120.595871
v -265.791779 -4.986272 -120.595871
v -277.487152 -4.986273 -120.595879
v -277.487152 3.666635 -120.595879
vt -2.357222 -2.721138
vt 3.357222 -2.721138
vt 3.357222 3.721138
vt -2.357222 3.721138
vn 0.0000 0.0000 -1.0000
usemtl Grass.142
s 1
f 109/109/28 110/110/28 111/111/28
f 109/109/28 111/111/28 112/112/28
o Grass.150_Grass.067
v -265.791779 3.666636 -118.000008
v -265.791779 -4.986273 -118.000008
v -265.791779 -4.986273 -120.595879
v -265.791779 3.666636 -120.595879
vt -2.357222 -2.721138
vt 3.357222 -2.721138
vt 3.357222 3.721138
vt -2.357222 3.721138
vn 1.0000 0.0000 0.0000
usemtl Grass.142
s 1
f 113/113/29 114/114/29 115/115/29
f 113/113/29 115/115/29 116/116/29
o Grass.151_Grass.067
v -277.487152 3.666636 -120.595879
v -277.487152 -4.986273 -120.595879
v -277.487152 -4.986273 -118.000008
v -277.487152 3.666636 -118.000008
vt -2.357222 -2.721138
vt 3.357222 -2.721138
vt 3.357222 3.721138
vt -2.357222 3.721138
vn -1.0000 0.0000 0.0000
usemtl Grass.142
s 1
f 117/117/30 118/118/30 119/119/30
f 117/117/30 119/119/30 120/120/30
